<svg width="73" height="32" viewBox="0 0 73 32" fill="none" xmlns="http://www.w3.org/2000/svg">
<g clip-path="url(#clip0_4_1115)">
<g clip-path="url(#clip1_4_1115)">
<g clip-path="url(#clip2_4_1115)">
<path d="M0 19.777V0.279892H17.045C18.5306 0.279892 19.6908 0.493801 20.5258 0.921144C21.3616 1.34896 21.9559 1.9385 22.3085 2.69071C22.662 3.44198 22.8388 4.30936 22.8388 5.29334C22.8388 6.61252 22.3278 7.83769 21.3062 8.96972C22.1609 9.54515 22.8529 10.2607 23.3823 11.1154C23.9112 11.9691 24.1758 12.9442 24.1758 14.0396C24.1758 15.1167 23.9525 16.087 23.5064 16.9506C23.0612 17.8133 22.3743 18.5002 21.4453 19.0117C20.5173 19.5222 19.3109 19.777 17.8253 19.777H0ZM6.54418 7.38261H14.3991C14.715 7.38261 15.0164 7.36472 15.3036 7.32807C15.5918 7.29047 15.833 7.17479 16.0276 6.98015C16.2232 6.78458 16.321 6.46396 16.321 6.01733C16.321 5.55379 16.2232 5.22893 16.0276 5.04323C15.833 4.85799 15.5918 4.74705 15.3036 4.71038C15.0164 4.67277 14.715 4.65396 14.3991 4.65396H6.54418V7.38261ZM6.54418 14.9309H15.7361C16.0521 14.9309 16.3534 14.9131 16.6407 14.8764C16.9289 14.8388 17.17 14.7274 17.3647 14.5417C17.5602 14.3551 17.658 14.0391 17.658 13.5939C17.658 13.1304 17.5602 12.8055 17.3647 12.6198C17.17 12.4332 16.9289 12.3217 16.6407 12.2851C16.3534 12.2475 16.0521 12.2287 15.7361 12.2287H6.54418V14.9309Z" fill="#004AAD"/>
<path d="M25.1497 19.7771V16.6855C25.1497 15.6089 25.4322 14.6898 25.9978 13.9286C26.5643 13.1666 27.3113 12.5258 28.2394 12.0068C29.1683 11.4869 30.1847 11.0505 31.2896 10.698C32.3953 10.3444 33.5001 10.0337 34.6049 9.76521C35.7093 9.49585 36.7252 9.23115 37.6532 8.97161C38.5822 8.7112 39.3297 8.41829 39.8966 8.09345C40.4632 7.76904 40.7466 7.37417 40.7466 6.90872C40.7466 6.37089 40.4862 6.00513 39.9662 5.8105C39.4472 5.61493 38.4261 5.51714 36.9029 5.51714C35.8634 5.51714 34.9815 5.56369 34.257 5.6563C33.5321 5.74938 32.9792 5.96753 32.5984 6.31072C32.2186 6.65438 32.0286 7.19738 32.0286 7.93921H25.4844C25.4844 6.28721 25.7533 4.94124 26.2911 3.90179C26.8299 2.86139 27.5962 2.05841 28.5892 1.49285C29.582 0.926346 30.7611 0.536608 32.1263 0.32317C33.4917 0.108791 34.9909 0.00160217 36.6246 0.00160217C38.8708 0.00160217 40.7833 0.173669 42.362 0.516863C43.9402 0.860527 45.1517 1.4778 45.997 2.36917C46.8418 3.26053 47.2645 4.51436 47.2645 6.13019C47.2645 7.09583 47.0642 7.90823 46.6646 8.56736C46.2659 9.22548 45.7365 9.77277 45.0775 10.209C44.4178 10.6453 43.6793 11.0078 42.8622 11.296C42.0461 11.5846 41.2196 11.831 40.3837 12.035C39.5487 12.2381 38.7594 12.4374 38.0162 12.633C37.2738 12.8277 36.633 13.05 36.0942 13.3006C35.5564 13.5517 35.1944 13.8718 35.0092 14.2616H46.9862V19.7771H25.1497Z" fill="#004AAD"/>
<path d="M48.5166 19.777V0.279892H65.5615C67.0471 0.279892 68.2074 0.493801 69.0423 0.921144C69.8782 1.34896 70.4725 1.9385 70.8251 2.69071C71.1786 3.44198 71.3554 4.30936 71.3554 5.29334C71.3554 6.61252 70.8443 7.83769 69.8228 8.96972C70.6774 9.54515 71.3695 10.2607 71.8988 11.1154C72.4277 11.9691 72.6924 12.9442 72.6924 14.0396C72.6924 15.1167 72.4691 16.087 72.023 16.9506C71.5778 17.8133 70.8909 18.5002 69.9619 19.0117C69.0339 19.5222 67.8275 19.777 66.3419 19.777H48.5166ZM55.0607 7.38261H62.9157C63.2316 7.38261 63.5329 7.36472 63.8202 7.32807C64.1083 7.29047 64.3496 7.17479 64.5442 6.98015C64.7398 6.78458 64.8375 6.46396 64.8375 6.01733C64.8375 5.55379 64.7398 5.22893 64.5442 5.04323C64.3496 4.85799 64.1083 4.74705 63.8202 4.71038C63.5329 4.67277 63.2316 4.65396 62.9157 4.65396H55.0607V7.38261ZM55.0607 14.9309H64.2527C64.5686 14.9309 64.8699 14.9131 65.1572 14.8764C65.4454 14.8388 65.6866 14.7274 65.8812 14.5417C66.0768 14.3551 66.1745 14.0391 66.1745 13.5939C66.1745 13.1304 66.0768 12.8055 65.8812 12.6198C65.6866 12.4332 65.4454 12.3217 65.1572 12.2851C64.8699 12.2475 64.5686 12.2287 64.2527 12.2287H55.0607V14.9309Z" fill="#004AAD"/>
<path d="M3.89655 25.221C4.51805 25.221 5.07422 25.3564 5.56456 25.6272C6.05443 25.898 6.43946 26.2812 6.7192 26.7762C6.99845 27.2703 7.13855 27.8401 7.13855 28.4856C7.13855 29.1315 6.99845 29.7037 6.7192 30.2025C6.43946 30.7004 6.05443 31.0854 5.56456 31.3571C5.07422 31.6279 4.51805 31.7633 3.89655 31.7633C3.45745 31.7633 3.0569 31.6872 2.6949 31.5358C2.33243 31.3844 2.02732 31.1568 1.77909 30.8531V31.6787H0.357422V22.8046H1.85243V26.0691C2.10677 25.7908 2.40718 25.5802 2.75319 25.4372C3.10015 25.2934 3.48142 25.221 3.89655 25.221ZM3.72918 30.4827C4.27923 30.4827 4.73196 30.2998 5.08691 29.9336C5.44139 29.5664 5.61909 29.0836 5.61909 28.4856C5.61909 27.8875 5.44139 27.4057 5.08691 27.0395C4.73196 26.6723 4.27923 26.4885 3.72918 26.4885C3.37047 26.4885 3.0475 26.5707 2.76072 26.7348C2.47347 26.898 2.24593 27.1311 2.07809 27.4344C1.9112 27.7367 1.82798 28.0869 1.82798 28.4856C1.82798 28.8842 1.9112 29.2354 2.07809 29.5387C2.24593 29.841 2.47347 30.0742 2.76072 30.2382C3.0475 30.4013 3.37047 30.4827 3.72918 30.4827Z" fill="black"/>
<path d="M8.56266 25.2924H10.0576V31.6787H8.56266V25.2924ZM9.31488 24.2394C9.04407 24.2394 8.81653 24.1543 8.63226 23.9836C8.44886 23.812 8.35767 23.5981 8.35767 23.3424C8.35767 23.088 8.44886 22.8751 8.63226 22.703C8.81653 22.5314 9.04407 22.4454 9.31488 22.4454C9.58569 22.4454 9.81228 22.5276 9.99561 22.6917C10.1799 22.8549 10.272 23.0598 10.272 23.3067C10.272 23.5699 10.1822 23.7914 10.0031 23.9705C9.82356 24.1501 9.59412 24.2394 9.31488 24.2394Z" fill="black"/>
<path d="M13.441 26.2252C13.872 25.5557 14.6299 25.221 15.7145 25.221V26.6426C15.5866 26.6191 15.4705 26.6069 15.3666 26.6069C14.7846 26.6069 14.3304 26.777 14.0032 27.1165C13.6769 27.455 13.5143 27.9435 13.5143 28.5814V31.6786H12.0193V25.2924H13.441V26.2252Z" fill="black"/>
<path d="M19.482 25.221C20.4223 25.221 21.141 25.4461 21.6389 25.896C22.1377 26.3465 22.3874 27.0257 22.3874 27.9345V31.6786H20.977V30.9019C20.7937 31.1803 20.5322 31.3937 20.1928 31.5414C19.8543 31.689 19.4454 31.7632 18.9667 31.7632C18.4891 31.7632 18.0702 31.6814 17.7105 31.5187C17.3518 31.3547 17.075 31.1272 16.8794 30.8361C16.6848 30.5442 16.5879 30.2151 16.5879 29.8489C16.5879 29.2748 16.8008 28.8146 17.2272 28.4686C17.6532 28.1216 18.3255 27.9477 19.2432 27.9477H20.8924V27.8518C20.8924 27.4056 20.7588 27.0629 20.4918 26.8231C20.2248 26.5838 19.8284 26.464 19.3033 26.464C18.9432 26.464 18.5897 26.5199 18.2427 26.6313C17.8967 26.7432 17.6039 26.8983 17.3645 27.0977L16.7797 26.0089C17.1145 25.7545 17.5169 25.5594 17.987 25.424C18.4571 25.2886 18.9554 25.221 19.482 25.221ZM19.2789 30.6744C19.6536 30.6744 19.9865 30.5889 20.2774 30.4168C20.568 30.2452 20.7729 30.0003 20.8924 29.6816V28.9406H19.3504C18.4891 28.9406 18.0584 29.2236 18.0584 29.7887C18.0584 30.0595 18.1661 30.2753 18.3819 30.4356C18.5972 30.595 18.8962 30.6744 19.2789 30.6744Z" fill="black"/>
<path d="M27.9982 31.1818C27.8223 31.3247 27.6089 31.4328 27.3569 31.5053C27.1059 31.5767 26.8417 31.6124 26.5633 31.6124C25.861 31.6124 25.3189 31.429 24.9367 31.0614C24.554 30.6943 24.3632 30.1602 24.3632 29.4592V26.3846H23.3101V25.1886H24.3632V23.7293H25.8582V25.1886H27.5675V26.3846H25.8582V29.4235C25.8582 29.7347 25.9334 29.9717 26.0838 30.1343C26.2352 30.2975 26.4548 30.3788 26.742 30.3788C27.0767 30.3788 27.3555 30.2919 27.5789 30.1174L27.9982 31.1818Z" fill="black"/>
<path d="M36.2149 25.221C36.8364 25.221 37.3925 25.3564 37.8829 25.6272C38.3728 25.898 38.7578 26.2812 39.0375 26.7762C39.3168 27.2703 39.4569 27.8401 39.4569 28.4856C39.4569 29.1315 39.3168 29.7037 39.0375 30.2025C38.7578 30.7004 38.3728 31.0854 37.8829 31.3571C37.3925 31.6279 36.8364 31.7633 36.2149 31.7633C35.7758 31.7633 35.3752 31.6872 35.0132 31.5358C34.6508 31.3844 34.3456 31.1568 34.0975 30.8531V31.6787H32.6758V22.8046H34.1708V26.0691C34.4251 25.7908 34.7255 25.5802 35.0715 25.4372C35.4185 25.2934 35.7998 25.221 36.2149 25.221ZM36.0475 30.4827C36.5976 30.4827 37.0503 30.2998 37.4053 29.9336C37.7597 29.5664 37.9374 29.0836 37.9374 28.4856C37.9374 27.8875 37.7597 27.4057 37.4053 27.0395C37.0503 26.6723 36.5976 26.4885 36.0475 26.4885C35.6889 26.4885 35.3658 26.5707 35.0791 26.7348C34.7918 26.898 34.5642 27.1311 34.3964 27.4344C34.2295 27.7367 34.1463 28.0869 34.1463 28.4856C34.1463 28.8842 34.2295 29.2354 34.3964 29.5387C34.5642 29.841 34.7918 30.0742 35.0791 30.2382C35.3658 30.4013 35.6889 30.4827 36.0475 30.4827Z" fill="black"/>
<path d="M43.3199 25.221C44.2602 25.221 44.979 25.4461 45.4768 25.896C45.9756 26.3465 46.2253 27.0257 46.2253 27.9345V31.6786H44.8149V30.9019C44.6315 31.1803 44.3702 31.3937 44.0307 31.5414C43.6922 31.689 43.2832 31.7632 42.8046 31.7632C42.327 31.7632 41.9081 31.6814 41.5484 31.5187C41.1898 31.3547 40.9129 31.1272 40.7172 30.8361C40.5226 30.5442 40.4258 30.2151 40.4258 29.8489C40.4258 29.2748 40.6388 28.8146 41.0651 28.4686C41.4911 28.1216 42.1634 27.9477 43.0811 27.9477H44.7303V27.8518C44.7303 27.4056 44.5968 27.0629 44.3298 26.8231C44.0627 26.5838 43.6664 26.464 43.1412 26.464C42.7811 26.464 42.4276 26.5199 42.0806 26.6313C41.7346 26.7432 41.4418 26.8983 41.2024 27.0977L40.6176 26.0089C40.9523 25.7545 41.3548 25.5594 41.8249 25.424C42.295 25.2886 42.7933 25.221 43.3199 25.221ZM43.1168 30.6744C43.4915 30.6744 43.8244 30.5889 44.1154 30.4168C44.4059 30.2452 44.6109 30.0003 44.7303 29.6816V28.9406H43.1883C42.327 28.9406 41.8963 29.2236 41.8963 29.7887C41.8963 30.0595 42.004 30.2753 42.2198 30.4356C42.4351 30.595 42.7341 30.6744 43.1168 30.6744Z" fill="black"/>
<path d="M53.1281 30.4826V31.6786H47.6145V30.7346L51.1179 26.4884H47.6859V25.2924H53.0322V26.2364L49.5157 30.4826H53.1281Z" fill="black"/>
<path d="M56.9434 25.221C57.8836 25.221 58.6025 25.4461 59.1004 25.896C59.5992 26.3465 59.8488 27.0257 59.8488 27.9345V31.6786H58.4384V30.9019C58.2551 31.1803 57.9936 31.3937 57.6543 31.5414C57.3158 31.689 56.9067 31.7632 56.4281 31.7632C55.9505 31.7632 55.5316 31.6814 55.172 31.5187C54.8132 31.3547 54.5363 31.1272 54.3408 30.8361C54.1462 30.5442 54.0493 30.2151 54.0493 29.8489C54.0493 29.2748 54.2622 28.8146 54.6887 28.4686C55.1146 28.1216 55.7869 27.9477 56.7046 27.9477H58.3538V27.8518C58.3538 27.4056 58.2202 27.0629 57.9532 26.8231C57.6862 26.5838 57.2899 26.464 56.7647 26.464C56.4046 26.464 56.0511 26.5199 55.7041 26.6313C55.3581 26.7432 55.0652 26.8983 54.826 27.0977L54.2411 26.0089C54.5758 25.7545 54.9782 25.5594 55.4484 25.424C55.9185 25.2886 56.4169 25.221 56.9434 25.221ZM56.7403 30.6744C57.115 30.6744 57.4479 30.5889 57.7388 30.4168C58.0294 30.2452 58.2344 30.0003 58.3538 29.6816V28.9406H56.8118C55.9505 28.9406 55.5199 29.2236 55.5199 29.7887C55.5199 30.0595 55.6275 30.2753 55.8433 30.4356C56.0586 30.595 56.3576 30.6744 56.7403 30.6744Z" fill="black"/>
<path d="M64.2037 25.221C65.1439 25.221 65.8627 25.4461 66.3606 25.896C66.8594 26.3465 67.1091 27.0257 67.1091 27.9345V31.6786H65.6987V30.9019C65.5153 31.1803 65.2539 31.3937 64.9144 31.5414C64.576 31.689 64.167 31.7632 63.6884 31.7632C63.2108 31.7632 62.7918 31.6814 62.4322 31.5187C62.0735 31.3547 61.7966 31.1272 61.601 30.8361C61.4064 30.5442 61.3096 30.2151 61.3096 29.8489C61.3096 29.2748 61.5225 28.8146 61.9489 28.4686C62.3748 28.1216 63.0471 27.9477 63.9648 27.9477H65.614V27.8518C65.614 27.4056 65.4805 27.0629 65.2135 26.8231C64.9464 26.5838 64.5501 26.464 64.025 26.464C63.6649 26.464 63.3113 26.5199 62.9644 26.6313C62.6184 26.7432 62.3255 26.8983 62.0862 27.0977L61.5013 26.0089C61.8361 25.7545 62.2385 25.5594 62.7086 25.424C63.1788 25.2886 63.6771 25.221 64.2037 25.221ZM64.0006 30.6744C64.3752 30.6744 64.7081 30.5889 64.9991 30.4168C65.2896 30.2452 65.4946 30.0003 65.614 29.6816V28.9406H64.072C63.2108 28.9406 62.7801 29.2236 62.7801 29.7887C62.7801 30.0595 62.8877 30.2753 63.1036 30.4356C63.3189 30.595 63.6178 30.6744 64.0006 30.6744Z" fill="black"/>
<path d="M70.4466 26.2252C70.8777 25.5557 71.6355 25.221 72.7201 25.221V26.6426C72.5922 26.6191 72.4761 26.6069 72.3722 26.6069C71.7902 26.6069 71.336 26.777 71.0088 27.1165C70.6826 27.455 70.5199 27.9435 70.5199 28.5814V31.6786H69.0249V25.2924H70.4466V26.2252Z" fill="black"/>
</g>
</g>
</g>
<defs>
<clipPath id="clip0_4_1115">
<rect width="72.72" height="32" fill="white"/>
</clipPath>
<clipPath id="clip1_4_1115">
<rect width="72.72" height="32" fill="white"/>
</clipPath>
<clipPath id="clip2_4_1115">
<rect width="72.72" height="31.9968" fill="white" transform="translate(0 0.00160217)"/>
</clipPath>
</defs>
</svg>
