<svg width="138" height="61" viewBox="0 0 138 61" fill="none" xmlns="http://www.w3.org/2000/svg">
<g clip-path="url(#clip0_236_3689)">
<g clip-path="url(#clip1_236_3689)">
<g clip-path="url(#clip2_236_3689)">
<path d="M0 37.5307V0.53125H32.3461C35.1653 0.53125 37.3671 0.937182 38.9516 1.74815C40.5378 2.56002 41.6655 3.67878 42.3347 5.10623C43.0055 6.5319 43.341 8.17793 43.341 10.0452C43.341 12.5486 42.3712 14.8736 40.4326 17.0218C42.0545 18.1138 43.3677 19.4718 44.3724 21.0937C45.3761 22.7138 45.8782 24.5642 45.8782 26.6429C45.8782 28.6868 45.4544 30.5282 44.6078 32.1671C43.763 33.8043 42.4596 35.1077 40.6966 36.0784C38.9355 37.0472 36.6462 37.5307 33.827 37.5307H0ZM12.4188 14.01H27.325C27.9246 14.01 28.4964 13.976 29.0415 13.9065C29.5884 13.8352 30.046 13.6156 30.4155 13.2463C30.7866 12.8751 30.9722 12.2667 30.9722 11.4191C30.9722 10.5395 30.7866 9.92299 30.4155 9.57058C30.046 9.21907 29.5884 9.00852 29.0415 8.93894C28.4964 8.86757 27.9246 8.83188 27.325 8.83188H12.4188V14.01ZM12.4188 28.3344H29.8622C30.4618 28.3344 31.0337 28.3006 31.5788 28.2309C32.1257 28.1596 32.5833 27.9481 32.9527 27.5957C33.3238 27.2416 33.5094 26.642 33.5094 25.7971C33.5094 24.9175 33.3238 24.3009 32.9527 23.9486C32.5833 23.5944 32.1257 23.383 31.5788 23.3134C31.0337 23.2421 30.4618 23.2063 29.8622 23.2063H12.4188V28.3344Z" fill="#004AAD"/>
<path d="M47.7266 37.5308V31.664C47.7266 29.6209 48.2628 27.8767 49.3361 26.4323C50.4111 24.9862 51.8287 23.7701 53.5899 22.7852C55.3527 21.7985 57.2815 20.9705 59.3782 20.3015C61.4765 19.6305 63.5731 19.0408 65.6696 18.5313C67.7654 18.0202 69.6933 17.5179 71.4544 17.0254C73.2174 16.5312 74.6359 15.9753 75.7117 15.3589C76.7869 14.7432 77.3248 13.9939 77.3248 13.1106C77.3248 12.09 76.8305 11.3959 75.8438 11.0265C74.8589 10.6554 72.9211 10.4698 70.0305 10.4698C68.058 10.4698 66.3843 10.5582 65.0094 10.7339C63.6338 10.9106 62.5846 11.3245 61.8619 11.9758C61.1411 12.628 60.7807 13.6584 60.7807 15.0662H48.3618C48.3618 11.9312 48.8721 9.37695 49.8927 7.40439C50.9152 5.43004 52.3694 3.90624 54.2537 2.83298C56.1378 1.75793 58.3753 1.01833 60.9661 0.613288C63.5571 0.206464 66.4021 0.00305176 69.5024 0.00305176C73.7651 0.00305176 77.3944 0.329582 80.3902 0.980856C83.3852 1.63302 85.6843 2.80442 87.2884 4.49596C88.8915 6.18748 89.6936 8.56686 89.6936 11.6332C89.6936 13.4657 89.3135 15.0074 88.5552 16.2582C87.7987 17.5071 86.7941 18.5457 85.5434 19.3736C84.2916 20.2014 82.8901 20.8893 81.3395 21.4362C79.7907 21.984 78.2224 22.4515 76.636 22.8387C75.0515 23.2242 73.5537 23.6024 72.1432 23.9735C70.7345 24.3429 69.5184 24.7648 68.496 25.2404C67.4753 25.7169 66.7884 26.3243 66.4369 27.064H89.1655V37.5308H47.7266Z" fill="#004AAD"/>
<path d="M92.0693 37.5307V0.53125H124.415C127.234 0.53125 129.436 0.937182 131.021 1.74815C132.607 2.56002 133.735 3.67878 134.404 5.10623C135.075 6.5319 135.41 8.17793 135.41 10.0452C135.41 12.5486 134.44 14.8736 132.502 17.0218C134.124 18.1138 135.437 19.4718 136.442 21.0937C137.445 22.7138 137.948 24.5642 137.948 26.6429C137.948 28.6868 137.524 30.5282 136.677 32.1671C135.832 33.8043 134.529 35.1077 132.766 36.0784C131.005 37.0472 128.716 37.5307 125.896 37.5307H92.0693ZM104.488 14.01H119.394C119.994 14.01 120.566 13.976 121.111 13.9065C121.658 13.8352 122.115 13.6156 122.485 13.2463C122.856 12.8751 123.041 12.2667 123.041 11.4191C123.041 10.5395 122.856 9.92299 122.485 9.57058C122.115 9.21907 121.658 9.00852 121.111 8.93894C120.566 8.86757 119.994 8.83188 119.394 8.83188H104.488V14.01ZM104.488 28.3344H121.932C122.531 28.3344 123.103 28.3006 123.648 28.2309C124.195 28.1596 124.653 27.9481 125.022 27.5957C125.393 27.2416 125.579 26.642 125.579 25.7971C125.579 24.9175 125.393 24.3009 125.022 23.9486C124.653 23.5944 124.195 23.383 123.648 23.3134C123.103 23.2421 122.531 23.2063 121.932 23.2063H104.488V28.3344Z" fill="#004AAD"/>
<path d="M7.39487 47.8612C8.5743 47.8612 9.62973 48.1182 10.5602 48.6321C11.4899 49.146 12.2205 49.8731 12.7514 50.8125C13.2813 51.7502 13.5472 52.8314 13.5472 54.0565C13.5472 55.2822 13.2813 56.368 12.7514 57.3146C12.2205 58.2594 11.4899 58.9901 10.5602 59.5057C9.62973 60.0196 8.5743 60.2765 7.39487 60.2765C6.5616 60.2765 5.80148 60.1321 5.11452 59.8447C4.42666 59.5574 3.84765 59.1256 3.37659 58.5493V60.1159H0.678711V43.2756H3.51577V49.4707C3.99843 48.9426 4.56852 48.543 5.22514 48.2716C5.88355 47.9987 6.6071 47.8612 7.39487 47.8612ZM7.07726 57.8464C8.12108 57.8464 8.98023 57.4993 9.65381 56.8043C10.3265 56.1076 10.6637 55.1912 10.6637 54.0565C10.6637 52.9216 10.3265 52.0072 9.65381 51.3122C8.98023 50.6154 8.12108 50.2666 7.07726 50.2666C6.39654 50.2666 5.78364 50.4227 5.23942 50.734C4.69431 51.0437 4.26251 51.4861 3.944 52.0615C3.62729 52.6352 3.46938 53.2998 3.46938 54.0565C3.46938 54.813 3.62729 55.4794 3.944 56.0548C4.26251 56.6285 4.69431 57.0711 5.23942 57.3824C5.78364 57.6919 6.39654 57.8464 7.07726 57.8464Z" fill="black"/>
<path d="M16.2494 47.9965H19.0864V60.1156H16.2494V47.9965ZM17.6768 45.9981C17.1629 45.9981 16.7311 45.8366 16.3814 45.5127C16.0334 45.1871 15.8604 44.7812 15.8604 44.2959C15.8604 43.8131 16.0334 43.4091 16.3814 43.0826C16.7311 42.7569 17.1629 42.5936 17.6768 42.5936C18.1908 42.5936 18.6208 42.7497 18.9687 43.061C19.3184 43.3707 19.4932 43.7596 19.4932 44.2281C19.4932 44.7277 19.3228 45.1479 18.9829 45.4878C18.6422 45.8286 18.2068 45.9981 17.6768 45.9981Z" fill="black"/>
<path d="M25.5065 49.7679C26.3246 48.4975 27.7628 47.8623 29.8209 47.8623V50.5601C29.5783 50.5155 29.3579 50.4923 29.1607 50.4923C28.0563 50.4923 27.1944 50.8152 26.5735 51.4594C25.9543 52.1018 25.6456 53.0287 25.6456 54.2394V60.1168H22.8086V47.9978H25.5065V49.7679Z" fill="black"/>
<path d="M36.9706 47.8623C38.755 47.8623 40.119 48.2896 41.0639 49.1434C42.0104 49.9981 42.4842 51.2872 42.4842 53.0118V60.1168H39.8076V58.643C39.4597 59.1713 38.9636 59.5763 38.3196 59.8564C37.6772 60.1366 36.9011 60.2775 35.9928 60.2775C35.0864 60.2775 34.2915 60.1222 33.609 59.8135C32.9282 59.5022 32.4028 59.0704 32.0316 58.5181C31.6623 57.9642 31.4785 57.3396 31.4785 56.6446C31.4785 55.5553 31.8826 54.6819 32.6918 54.0252C33.5001 53.3668 34.7759 53.0368 36.5174 53.0368H39.6472V52.8547C39.6472 52.0081 39.3936 51.3577 38.8869 50.9027C38.3802 50.4486 37.6281 50.2211 36.6316 50.2211C35.9482 50.2211 35.2772 50.3273 34.6188 50.5387C33.9622 50.7511 33.4065 51.0454 32.9524 51.4237L31.8426 49.3575C32.4778 48.8748 33.2415 48.5046 34.1335 48.2476C35.0257 47.9906 35.9714 47.8623 36.9706 47.8623ZM36.5852 58.2112C37.2963 58.2112 37.9279 58.0489 38.4801 57.7224C39.0315 57.3967 39.4204 56.9319 39.6472 56.3271V54.921H36.7209C35.0864 54.921 34.2692 55.4581 34.2692 56.5305C34.2692 57.0443 34.4735 57.4539 34.883 57.758C35.2916 58.0605 35.8591 58.2112 36.5852 58.2112Z" fill="black"/>
<path d="M53.1329 59.1732C52.7992 59.4443 52.3942 59.6495 51.916 59.787C51.4397 59.9225 50.9383 59.9904 50.41 59.9904C49.0772 59.9904 48.0486 59.6424 47.3232 58.9448C46.597 58.248 46.2348 57.2344 46.2348 55.9042V50.0696H44.2363V47.7999H46.2348V45.0306H49.0718V47.7999H52.3157V50.0696H49.0718V55.8365C49.0718 56.4271 49.2145 56.8767 49.5001 57.1854C49.7874 57.4949 50.204 57.6494 50.7491 57.6494C51.3843 57.6494 51.9134 57.4843 52.3372 57.1532L53.1329 59.1732Z" fill="black"/>
<path d="M68.724 47.8612C69.9033 47.8612 70.9588 48.1182 71.8893 48.6321C72.819 49.146 73.5496 49.8731 74.0805 50.8125C74.6104 51.7502 74.8763 52.8314 74.8763 54.0565C74.8763 55.2822 74.6104 56.368 74.0805 57.3146C73.5496 58.2594 72.819 58.9901 71.8893 59.5057C70.9588 60.0196 69.9033 60.2765 68.724 60.2765C67.8908 60.2765 67.1305 60.1321 66.4435 59.8447C65.7558 59.5574 65.1767 59.1256 64.7057 58.5493V60.1159H62.0078V43.2756H64.8448V49.4707C65.3275 48.9426 65.8976 48.543 66.5542 48.2716C67.2126 47.9987 67.9362 47.8612 68.724 47.8612ZM68.4063 57.8464C69.4502 57.8464 70.3093 57.4993 70.9829 56.8043C71.6555 56.1076 71.9928 55.1912 71.9928 54.0565C71.9928 52.9216 71.6555 52.0072 70.9829 51.3122C70.3093 50.6154 69.4502 50.2666 68.4063 50.2666C67.7257 50.2666 67.1127 50.4227 66.5686 50.734C66.0233 51.0437 65.5915 51.4861 65.273 52.0615C64.9563 52.6352 64.7984 53.2998 64.7984 54.0565C64.7984 54.813 64.9563 55.4794 65.273 56.0548C65.5915 56.6285 66.0233 57.0711 66.5686 57.3824C67.1127 57.6919 67.7257 57.8464 68.4063 57.8464Z" fill="black"/>
<path d="M82.2079 47.8623C83.9923 47.8623 85.3564 48.2896 86.3012 49.1434C87.2477 49.9981 87.7215 51.2872 87.7215 53.0118V60.1168H85.0449V58.643C84.697 59.1713 84.2011 59.5763 83.5569 59.8564C82.9145 60.1366 82.1384 60.2775 81.2301 60.2775C80.3237 60.2775 79.5288 60.1222 78.8463 59.8135C78.1656 59.5022 77.6401 59.0704 77.2689 58.5181C76.8996 57.9642 76.7158 57.3396 76.7158 56.6446C76.7158 55.5553 77.12 54.6819 77.9291 54.0252C78.7375 53.3668 80.0132 53.0368 81.7548 53.0368H84.8845V52.8547C84.8845 52.0081 84.6311 51.3577 84.1244 50.9027C83.6176 50.4486 82.8655 50.2211 81.8689 50.2211C81.1855 50.2211 80.5147 50.3273 79.8561 50.5387C79.1995 50.7511 78.6438 51.0454 78.1897 51.4237L77.0799 49.3575C77.7151 48.8748 78.4788 48.5046 79.3709 48.2476C80.263 47.9906 81.2087 47.8623 82.2079 47.8623ZM81.8225 58.2112C82.5336 58.2112 83.1653 58.0489 83.7175 57.7224C84.2688 57.3967 84.6579 56.9319 84.8845 56.3271V54.921H81.9582C80.3237 54.921 79.5065 55.4581 79.5065 56.5305C79.5065 57.0443 79.7108 57.4539 80.1203 57.758C80.5289 58.0605 81.0964 58.2112 81.8225 58.2112Z" fill="black"/>
<path d="M100.821 57.847V60.1166H90.3574V58.3252L97.0057 50.2672H90.4929V47.9976H100.639V49.7891L93.9653 57.847H100.821Z" fill="black"/>
<path d="M108.06 47.8623C109.845 47.8623 111.209 48.2896 112.154 49.1434C113.1 49.9981 113.574 51.2872 113.574 53.0118V60.1168H110.897V58.643C110.55 59.1713 110.053 59.5763 109.409 59.8564C108.767 60.1366 107.991 60.2775 107.083 60.2775C106.176 60.2775 105.381 60.1222 104.699 59.8135C104.018 59.5022 103.493 59.0704 103.121 58.5181C102.752 57.9642 102.568 57.3396 102.568 56.6446C102.568 55.5553 102.972 54.6819 103.782 54.0252C104.59 53.3668 105.866 53.0368 107.607 53.0368H110.737V52.8547C110.737 52.0081 110.483 51.3577 109.977 50.9027C109.47 50.4486 108.718 50.2211 107.721 50.2211C107.038 50.2211 106.367 50.3273 105.709 50.5387C105.052 50.7511 104.496 51.0454 104.042 51.4237L102.932 49.3575C103.567 48.8748 104.331 48.5046 105.223 48.2476C106.116 47.9906 107.061 47.8623 108.06 47.8623ZM107.675 58.2112C108.386 58.2112 109.018 58.0489 109.57 57.7224C110.121 57.3967 110.51 56.9319 110.737 56.3271V54.921H107.811C106.176 54.921 105.359 55.4581 105.359 56.5305C105.359 57.0443 105.563 57.4539 105.973 57.758C106.381 58.0605 106.949 58.2112 107.675 58.2112Z" fill="black"/>
<path d="M121.839 47.8623C123.623 47.8623 124.987 48.2896 125.932 49.1434C126.879 49.9981 127.352 51.2872 127.352 53.0118V60.1168H124.676V58.643C124.328 59.1713 123.832 59.5763 123.188 59.8564C122.545 60.1366 121.769 60.2775 120.861 60.2775C119.955 60.2775 119.16 60.1222 118.477 59.8135C117.796 59.5022 117.271 59.0704 116.9 58.5181C116.53 57.9642 116.347 57.3396 116.347 56.6446C116.347 55.5553 116.751 54.6819 117.56 54.0252C118.368 53.3668 119.644 53.0368 121.385 53.0368H124.515V52.8547C124.515 52.0081 124.262 51.3577 123.755 50.9027C123.248 50.4486 122.496 50.2211 121.5 50.2211C120.816 50.2211 120.145 50.3273 119.487 50.5387C118.83 50.7511 118.275 51.0454 117.821 51.4237L116.711 49.3575C117.346 48.8748 118.109 48.5046 119.002 48.2476C119.894 47.9906 120.84 47.8623 121.839 47.8623ZM121.453 58.2112C122.164 58.2112 122.796 58.0489 123.348 57.7224C123.9 57.3967 124.289 56.9319 124.515 56.3271V54.921H121.589C119.955 54.921 119.137 55.4581 119.137 56.5305C119.137 57.0443 119.342 57.4539 119.751 57.758C120.16 58.0605 120.727 58.2112 121.453 58.2112Z" fill="black"/>
<path d="M133.685 49.7679C134.503 48.4975 135.941 47.8623 138 47.8623V50.5601C137.757 50.5155 137.537 50.4923 137.339 50.4923C136.235 50.4923 135.373 50.8152 134.752 51.4594C134.133 52.1018 133.824 53.0287 133.824 54.2394V60.1168H130.987V47.9978H133.685V49.7679Z" fill="black"/>
</g>
</g>
</g>
<defs>
<clipPath id="clip0_236_3689">
<rect width="138" height="60.7261" fill="white"/>
</clipPath>
<clipPath id="clip1_236_3689">
<rect width="138" height="60.7261" fill="white"/>
</clipPath>
<clipPath id="clip2_236_3689">
<rect width="138" height="60.72" fill="white" transform="translate(0 0.00305176)"/>
</clipPath>
</defs>
</svg>
