<svg width="510" height="342" viewBox="0 0 510 342" fill="none" xmlns="http://www.w3.org/2000/svg">
<path d="M430.05 206.012L430.05 206.012C436.935 201.005 457.666 185.823 476.12 172.273C485.346 165.499 493.784 159.341 499.944 154.876C503.025 152.644 505.535 150.836 507.291 149.586C507.852 149.186 508.335 148.844 508.735 148.563C508.417 149.206 507.986 150.044 507.453 151.055C506.095 153.631 504.089 157.313 501.642 161.738C496.748 170.585 490.098 182.389 483.366 194.208C476.633 206.027 469.819 217.861 464.599 226.769C461.988 231.223 459.777 234.944 458.175 237.565C457.373 238.876 456.726 239.909 456.258 240.619C456.023 240.975 455.838 241.243 455.703 241.424C455.673 241.463 455.647 241.497 455.625 241.525C455.542 241.503 455.431 241.464 455.288 241.406C454.952 241.269 454.495 241.045 453.927 240.74C452.794 240.131 451.265 239.221 449.468 238.097C445.877 235.853 441.244 232.775 436.638 229.598C432.032 226.422 427.457 223.152 423.981 220.524C422.242 219.209 420.784 218.059 419.735 217.163C419.21 216.715 418.794 216.336 418.5 216.036C418.352 215.886 418.241 215.762 418.164 215.663C418.156 215.654 418.149 215.645 418.143 215.636C418.15 215.627 418.158 215.616 418.167 215.605C418.291 215.447 418.497 215.225 418.789 214.941C419.369 214.377 420.239 213.614 421.338 212.704C423.533 210.888 426.614 208.51 430.05 206.012ZM418.066 215.753C418.065 215.754 418.065 215.754 418.065 215.754L418.066 215.753Z" fill="white" stroke="#2563EB"/>
<path fill-rule="evenodd" clip-rule="evenodd" d="M484.596 161.954C472.8 169.321 450.367 183.172 434.745 192.736C419.124 202.3 406.165 210.281 405.949 210.471C405.51 210.857 407.992 223.271 411.152 236.501C413.23 245.196 413.23 245.196 414.424 230.729C415.806 213.966 409.078 220.623 468.366 177.356C515.539 142.93 516.457 142.059 484.596 161.954Z" fill="#D8D8D8"/>
<path fill-rule="evenodd" clip-rule="evenodd" d="M159.566 111.528C202.302 152.676 202.302 152.676 213.528 147.926C285.891 117.307 309.514 107.136 309.525 106.594C309.533 106.24 267.152 98.1979 215.344 88.7216C163.538 79.2453 120.178 71.2425 118.989 70.9364C117.801 70.6303 136.06 88.8966 159.566 111.528ZM141.884 158.827C120.915 170.285 101.973 183.121 99.7888 184.259C95.6882 186.398 103.8 188.579 130.194 192.437C134.994 193.138 135.407 193.347 132.221 193.462C126.263 193.677 127.468 194.307 164.624 210.39C183.434 218.532 207.056 228.82 217.118 233.252C239.137 242.95 230.983 246.735 272.556 207.518C291.82 189.346 310.998 171.305 315.171 167.427C322.76 160.376 322.76 160.376 284.558 167.088C247.018 173.686 240.616 174.624 245.04 172.885C247.041 172.099 240.139 162.639 229.017 150.923C227.828 149.669 225.131 150.605 213.983 156.14C200.398 162.885 200.398 160.354 196.811 156.296C178.933 136.073 183.951 135.842 141.884 158.827ZM405.916 180.121C381.655 188.297 381.026 209.837 405.05 209.837C412.03 209.837 452 181.5 433.75 185.36C434.159 181.288 439.532 177.072 440 175C441.063 170.294 439.112 168.936 405.916 180.121ZM248.394 240.807C238.095 251.956 230.6 243.498 217.118 236.502C205.936 230.698 141.697 300.91 149.989 309.201C150.249 309.463 167.236 306.76 187.735 303.194C208.234 299.628 225.462 296.991 226.018 297.335C226.575 297.679 227.204 297.527 227.419 296.998C227.892 295.827 251.325 291.859 252.709 292.715C253.251 293.049 253.868 292.904 254.083 292.391C254.296 291.88 273.904 288.109 297.656 284.013C321.408 279.916 340.841 276.284 340.841 275.94C340.841 275.596 325.35 266.712 306.417 256.198C287.485 245.683 269.001 235.411 265.343 233.37C258.694 229.659 258.694 229.659 248.394 240.807Z" fill="#B3D4E4"/>
<path fill-rule="evenodd" clip-rule="evenodd" d="M311.238 93.325C305.795 93.325 320.887 51.6694 330.665 39.7063C332.41 37.572 335.954 37.9441 337.267 40.3984C339.51 44.5871 315.541 93.325 311.238 93.325ZM94.1982 186.166C94.0405 186.01 98.7265 159.688 104.612 127.67C115.313 69.4568 115.313 69.4568 124.028 79.0247C128.82 84.2869 143.291 100.063 156.185 114.083C169.079 128.101 179.408 139.792 179.139 140.06C178.195 141.006 94.4811 186.444 94.1982 186.166ZM315.915 98.113C315.915 94.8947 316.757 94.4101 341.42 83.3954C364.392 73.1359 367.584 71.5429 369.138 72.5295C369.538 72.7832 369.829 73.2075 370.321 73.6988C374.503 77.8805 372.265 79.4537 345.046 91.4654C319.296 102.83 315.915 103.601 315.915 98.113ZM299.704 111.508C300.035 111.838 302.773 110.898 305.791 109.419C311.702 106.522 313.032 106.173 312.989 107.527C312.921 109.721 302.887 162.387 302.455 162.818C302.188 163.086 291.02 165.201 277.64 167.516C264.259 169.832 252.253 171.981 250.961 172.293C248.842 172.805 237.224 160.858 229.786 150.521C228.407 148.606 230.772 147.195 258.978 133.104C275.859 124.671 289.419 117.364 289.11 116.865C288.803 116.366 289.445 116.302 290.54 116.721C291.881 117.236 292.259 117.047 291.699 116.142C291.173 115.291 291.473 115.031 292.519 115.432C293.427 115.78 294.957 115.278 295.919 114.314C296.881 113.352 297.992 112.887 298.387 113.282C298.781 113.677 299.105 113.304 299.105 112.454C299.105 111.604 299.375 111.177 299.704 111.508ZM351.695 116.822C320.835 117.18 313.004 115.172 319.587 108.59C320.523 107.652 357.692 107.836 369.824 108.838C394.177 110.848 381.397 116.478 351.695 116.822ZM285.034 200.937C299.156 185.746 313.621 170.275 317.178 166.556C320.734 162.836 323.824 159.973 324.044 160.194C324.478 160.627 344.318 273.829 344.318 275.871C344.318 276.552 342.363 275.859 339.971 274.33C280.792 236.48 258.731 228.28 247.804 240.07C243.013 245.238 240.576 247.868 237.738 248.412C234.797 248.975 231.427 247.298 224.565 243.881C212.369 237.811 211.243 236.99 212.781 235.292C213.715 234.259 214.087 232.991 213.607 232.473C213.127 231.954 214.04 232.344 215.634 233.337C230.452 242.578 236.096 242.869 245.049 234.856C252.167 228.486 254.18 227.254 256.521 227.842C259.047 228.476 262.176 225.525 285.034 200.937ZM132.798 234.001C129.261 213.814 126.366 196.694 126.366 195.954C126.366 194.22 130.123 195.329 136.357 198.903C138.983 200.408 141.461 201.311 141.864 200.908C142.267 200.505 142.596 200.815 142.596 201.596C142.596 202.378 143.118 202.695 143.756 202.301C144.393 201.907 144.915 202.087 144.915 202.699C144.915 203.312 159.523 211.256 177.376 220.353C195.23 229.45 209.837 237.246 209.837 237.677C209.837 238.776 146.958 310.809 146.447 310.297C146.216 310.067 144.499 301.064 142.629 290.29C140.76 279.516 136.336 254.186 132.798 234.001ZM414.31 244.616C413.717 244.616 414.767 226.823 415.732 220.529C416.358 216.437 417.346 216.601 424.728 222.026C426.692 223.468 416.938 244.616 414.31 244.616Z" fill="#E9E9E9"/>
<path d="M182.869 138.452C181.041 139.814 196.292 159.041 200.689 160.917C203.43 162.087 227.47 148.139 225.724 146.393C224.07 144.739 223.006 144.959 214.061 148.802C201.496 154.2 202.579 154.397 193.055 144.98C185.844 137.851 184.677 137.103 182.869 138.452Z" fill="#E9E9E9"/>
<path fill-rule="evenodd" clip-rule="evenodd" d="M127.048 82.3693C130.292 85.845 142.49 99.1215 154.156 111.874C165.822 124.627 176.491 136.242 177.865 137.686C180.153 140.093 180.554 140.164 182.637 138.535C184.82 136.83 184.484 136.351 174.26 126.635C168.402 121.066 154.056 107.408 142.379 96.2812C130.703 85.1552 123.803 78.8948 127.048 82.3693ZM259.416 129.066C224.821 143.861 223.846 144.366 225.916 146.437C227.987 148.507 229.058 148.062 262.707 131.154C281.77 121.575 296.845 113.758 296.207 113.782C295.569 113.807 279.013 120.685 259.416 129.066ZM283.083 198.468C254.783 225.406 252.375 228.292 258.141 228.369C259.212 228.382 301.878 183.829 311.168 172.996C316.035 167.32 311.216 171.69 283.083 198.468ZM146.654 204.286C157.358 212.091 210.972 237.29 212.733 235.344C215.079 232.753 218.419 234.544 180.231 217.91C144.351 202.28 143.343 201.872 146.654 204.286Z" fill="#2486D7"/>
<path fill-rule="evenodd" clip-rule="evenodd" d="M130.134 0.83819C126.102 1.33902 124.718 4.63729 128.54 4.63729C133.232 4.63729 137.959 3.1093 137.959 1.59407C137.959 0.00811522 137.322 -0.0533288 130.134 0.83819ZM147.234 1.15932C147.234 1.79695 149.06 2.39632 151.292 2.49254C153.523 2.58761 155.958 2.71861 156.702 2.78237C157.445 2.84614 158.272 2.24677 158.537 1.44915C158.882 0.416197 157.327 0 153.127 0C149.885 0 147.234 0.521695 147.234 1.15932ZM166.942 1.55117C166.942 3.35624 170.338 4.59671 175.347 4.62106C178.555 4.63729 179.785 2.6363 177.086 1.79347C171.706 0.111295 166.942 -0.00231861 166.942 1.55117ZM114.193 4.33239C108.507 5.76647 106.294 7.05563 107.481 8.24278C109.195 9.95742 118.251 7.37561 118.251 5.17174C118.251 3.41188 118.026 3.36435 114.193 4.33239ZM187.156 4.75786C186.129 6.41917 187.517 7.7663 190.974 8.46421C192.741 8.82012 195.152 9.48557 196.332 9.94235C197.991 10.5835 198.387 10.3006 198.071 8.70071C197.619 6.39598 188.238 3.00844 187.156 4.75786ZM91.8763 12.4569C88.1259 14.3246 87.2761 15.579 89.029 16.6629C90.3576 17.4837 99.7017 13.0945 99.7017 11.65C99.7017 9.918 96.2678 10.2716 91.8763 12.4569ZM206.359 12.0465C206.359 13.3322 213.86 17.3898 216.237 17.3898C218.448 17.3898 216.034 13.9791 212.696 12.3874C207.715 10.0119 206.359 9.93887 206.359 12.0465ZM75.0661 21.5321C70.8207 24.3133 69.9929 25.5515 71.4247 26.9832C72.4912 28.051 81.1525 21.9518 81.1525 20.1339C81.1525 17.9764 80.1416 18.2095 75.0661 21.5321ZM224.476 19.3688C223.058 20.7855 223.799 21.8277 227.975 24.2913C232.863 27.1757 237.586 26.5914 233.603 23.5945C229.721 20.673 225.244 18.6002 224.476 19.3688ZM58.8031 33.3108C54.8939 36.2798 53.7589 38.8373 56.3512 38.8373C58.8425 38.8373 65.4658 32.541 64.2508 31.326C63.3929 30.4681 61.7675 31.0606 58.8031 33.3108ZM241.139 31.5915C241.139 34.1177 249.273 39.8621 250.753 38.3817C251.709 37.4264 250.996 36.1848 248.044 33.6609C243.776 30.0137 241.139 29.223 241.139 31.5915ZM256.728 44.1539C255.818 45.6263 263.066 53.5271 264.509 52.6355C266.113 51.6443 265.646 50.2195 262.483 46.4621C259.285 42.6596 257.976 42.1356 256.728 44.1539ZM43.6914 47.3061C40.2737 50.8734 39.6708 53.3288 42.2121 53.3288C43.929 53.3288 49.8508 46.9676 49.8508 45.1243C49.8508 43.0143 46.7508 44.1122 43.6914 47.3061ZM205.432 51.242C203.096 53.5781 203.718 60.0309 206.42 61.4765C212.632 64.8015 218.998 58.606 215.248 52.8825C213.094 49.5958 207.939 48.7344 205.432 51.242ZM270.837 58.9063C269.983 60.2882 275.375 68.4 277.148 68.4C279.612 68.4 279.004 66.013 275.509 61.9704C272.959 59.0199 271.398 57.9974 270.837 58.9063ZM30.7255 63.2816C28.1924 66.6031 27.9756 72.6582 30.5041 69.4816C36.4908 61.9611 37.6467 59.1254 34.724 59.1254C34.2684 59.1254 32.4691 60.9954 30.7255 63.2816ZM65.7197 62.193C65.2803 62.6312 64.922 64.2067 64.922 65.6953C64.922 67.8076 64.2867 68.4 62.0237 68.4C60.2198 68.4 59.1254 69.0573 59.1254 70.139C59.1254 71.2079 60.2117 71.878 61.9472 71.878C64.1604 71.878 64.8467 72.5631 65.1353 75.0557C65.6756 79.7416 69.5593 80.1474 69.5593 75.5182C69.5593 72.6582 70.0857 71.9661 72.4936 71.6646C76.2579 71.1951 76.3054 69.0898 72.5643 68.6191C70.4578 68.3548 69.6045 67.4575 69.3402 65.2316C68.9785 62.1907 67.2071 60.7044 65.7197 62.193ZM282.291 75.3606C281.51 76.6265 286.224 85.7898 287.657 85.7898C289.922 85.7898 289.655 83.1466 286.959 78.8768C283.792 73.8593 283.402 73.5648 282.291 75.3606ZM19.8916 80.1277C17.6681 84.0207 17.8107 89.7721 20.0597 86.8715C22.288 83.9987 25.3892 77.2653 24.8709 76.426C23.6907 74.5177 22.6555 75.2875 19.8916 80.1277ZM11.0286 98.1041C8.96156 103.053 8.88389 103.96 10.4432 104.924C11.3544 105.487 16.2305 96.6098 16.2305 94.3885C16.2305 92.0699 12.4105 94.7989 11.0286 98.1041ZM4.71844 116.73C3.0838 122.615 3.16147 124.047 5.11493 124.047C6.47829 124.047 8.35987 118.083 8.30075 113.949C8.26017 111.077 5.7456 113.028 4.71844 116.73ZM1.14657 133.612C1.13961 134.409 0.810366 137.018 0.415037 139.408C-0.17042 142.949 0.0475322 143.756 1.58711 143.756C2.66296 143.756 3.47797 142.819 3.47797 141.582C3.47797 140.387 3.80374 137.778 4.20254 135.786C4.77641 132.917 4.53527 132.163 3.04322 132.163C2.00679 132.163 1.15353 132.815 1.14657 133.612ZM347.797 148.973C347.797 151.257 347.209 151.871 345.022 151.871C342.361 151.871 340.249 154.372 341.694 155.815C342.074 156.197 343.603 156.508 345.092 156.508C347.152 156.508 347.797 157.153 347.797 159.213C347.797 160.702 348.108 162.231 348.49 162.611C349.933 164.056 352.434 161.945 352.434 159.283C352.434 157.096 353.048 156.508 355.332 156.508C357.457 156.508 358.23 155.891 358.23 154.19C358.23 152.489 357.457 151.871 355.332 151.871C353.014 151.871 352.434 151.292 352.434 148.973C352.434 146.848 351.816 146.075 350.115 146.075C348.415 146.075 347.797 146.848 347.797 148.973ZM39.0309 152.644C37.562 154.112 38.2646 157.422 40.203 158.166C42.6654 159.111 45.7596 156.125 44.8287 153.701C44.1238 151.864 40.4754 151.199 39.0309 152.644ZM0 158.827C0 164.173 1.21845 166.182 2.85541 163.535C3.80605 161.996 2.23285 153.031 1.01093 153.031C0.454454 153.031 0 155.639 0 158.827ZM0.810366 175.927C1.88622 182.933 2.43342 184.332 4.10168 184.332C5.34447 184.332 5.66908 183.504 5.23898 181.434C4.90857 179.84 4.36601 177.231 4.0356 175.637C3.18582 171.544 0.179695 171.814 0.810366 175.927ZM4.63729 194.593C4.63729 198.409 7.13679 204.041 8.83056 204.041C10.5058 204.041 10.2345 201.193 7.97382 195.056C6.81449 191.907 4.63729 191.605 4.63729 194.593ZM10.4339 213.174C10.4339 216.018 14.1727 222.59 15.79 222.59C17.0907 222.59 17.3945 221.988 16.816 220.561C16.3638 219.445 15.4735 217.097 14.8393 215.344C13.7843 212.428 10.4339 210.779 10.4339 213.174ZM81.9258 216.407C81.5003 216.831 81.1525 218.1 81.1525 219.224C81.1525 220.459 80.1242 221.417 78.5557 221.639C74.7589 222.182 74.352 226.068 78.0919 226.068C80.4013 226.068 81.0737 226.723 81.3659 229.256C81.8481 233.448 85.0884 233.501 85.5707 229.327C85.8455 226.945 86.6466 226.123 88.9583 225.849C93.3718 225.324 93.6384 222.71 89.3675 221.856C86.5747 221.297 85.7898 220.537 85.7898 218.387C85.7898 215.794 83.6404 214.693 81.9258 216.407ZM19.1532 230.666C18.3567 231.955 22.761 241.139 24.1765 241.139C26.4012 241.139 26.3653 239.427 24.0409 234.643C21.5495 229.513 20.4284 228.602 19.1532 230.666ZM29.4445 248.566C28.8242 250.182 33.4627 258.487 35.0011 258.515C37.2293 258.554 36.8664 255.81 34.0887 251.613C30.656 246.427 30.3441 246.221 29.4445 248.566ZM403.154 254.41C399.982 258.384 399.12 260.847 400.898 260.847C402.719 260.847 409.489 252.912 408.722 251.673C407.492 249.682 406.56 250.141 403.154 254.41ZM40.5763 265.622C40.5763 268.151 47.2088 274.619 48.4886 273.339C49.3303 272.497 48.7518 270.938 46.5874 268.227C43.514 264.375 40.5763 263.101 40.5763 265.622ZM388.345 268.411C383.019 273.907 385.172 275.815 391.069 270.827C394.74 267.723 395.226 266.842 393.881 265.726C392.587 264.652 391.459 265.198 388.345 268.411ZM372.432 281.233C365.972 286.324 368.35 288.442 375.251 283.744C379.094 281.127 380.361 278.226 377.649 278.25C376.853 278.257 374.505 279.599 372.432 281.233ZM54.0221 280.373C53.0842 281.89 61.0476 289.053 62.6045 288.092C63.5297 287.519 62.7483 285.997 60.1584 283.323C56.2248 279.266 55.0539 278.702 54.0221 280.373ZM356.202 292.358C353.011 294.325 350.985 297.946 353.074 297.946C354.798 297.946 362.803 292.59 362.496 291.643C361.885 289.756 360.089 289.961 356.202 292.358ZM68.4 294.909C68.4 297.461 76.5721 303.208 77.6711 301.43C78.2496 300.494 77.2097 298.768 74.7832 296.637C70.656 293.014 68.4 292.403 68.4 294.909ZM338.272 302.642C335.46 304.126 334.186 305.496 334.604 306.585C335.402 308.667 345.478 304.208 345.478 301.773C345.478 299.701 343.355 299.957 338.272 302.642ZM84.1378 307.079C83.3182 308.406 92.4838 314.474 93.9457 313.571C95.8214 312.412 95.2093 311.39 91.0091 308.669C86.6547 305.85 85.1186 305.494 84.1378 307.079ZM320.263 311.562C317.167 313.103 314.959 316.495 317.051 316.495C319.428 316.495 326.929 312.437 326.929 311.152C326.929 309.089 324.992 309.209 320.263 311.562ZM101.452 317.637C100.618 318.985 107.499 323.44 110.425 323.446C113.876 323.454 112.673 321.291 107.863 318.837C102.578 316.14 102.397 316.107 101.452 317.637ZM300.392 319.558C297.728 320.719 296.842 321.652 297.641 322.45C299.236 324.046 308.38 321.286 308.38 319.21C308.38 317.237 305.419 317.366 300.392 319.558ZM283.464 325.075C280.76 325.86 278.678 327.234 278.458 328.38C278.089 330.292 287.333 328.653 289.578 326.409C291.324 324.662 287.649 323.861 283.464 325.075ZM119.887 325.936C118.919 327.504 120.287 328.643 125.05 330.235C128.808 331.491 131.003 331.194 131.003 329.429C131.003 327.895 120.681 324.651 119.887 325.936ZM262.876 330.642C259.408 331.563 256.48 335.044 259.175 335.044C262.506 335.044 270.122 332.126 270.122 330.848C270.122 329.035 269.039 329.005 262.876 330.642ZM138.767 333.128C137.86 335.493 148.304 338.224 149.688 335.984C150.682 334.377 149.313 333.607 143.034 332.236C140.393 331.66 139.238 331.902 138.767 333.128ZM242.588 334.723C238.556 335.224 237.172 338.522 240.994 338.522C245.686 338.522 250.414 336.994 250.414 335.479C250.414 333.893 249.776 333.831 242.588 334.723ZM158.827 337.663C158.827 339.779 167.886 341.52 169.662 339.744C171.316 338.09 170.61 337.694 164.334 336.76C159.867 336.096 158.827 336.266 158.827 337.663ZM220.561 338.13C216.783 339.655 219.41 341.399 224.907 341.018C228.92 340.741 230.705 340.116 230.705 338.989C230.705 337.374 223.87 336.796 220.561 338.13ZM178.536 340.197C178.536 341.592 179.871 342 184.428 342C192.089 342 191.687 339.252 183.952 338.748C179.674 338.469 178.536 338.774 178.536 340.197ZM200.273 339.321C196.161 340.395 198.417 342 204.041 342C208.421 342 209.837 341.575 209.837 340.261C209.837 338.535 205.074 338.066 200.273 339.321Z" fill="white"/>
<path fill-rule="evenodd" clip-rule="evenodd" d="M471.121 159.148C432.56 172.095 433.586 171.331 433.586 187.086C433.586 189.779 432.934 192.692 432.137 193.556C431.34 194.421 432.513 193.811 434.745 192.2C436.977 190.589 446.367 184.751 455.613 179.231C464.858 173.709 473.206 168.682 474.162 168.059C475.118 167.437 476.683 166.577 477.64 166.15C478.596 165.722 479.64 165.046 479.959 164.649C480.277 164.251 483.409 162.324 486.917 160.369C496.073 155.264 508.565 147.24 507.203 147.339C506.565 147.385 490.328 152.7 471.121 159.148ZM423.731 198.397C420.543 200.37 417.413 202.521 416.776 203.178C415.492 204.498 423.481 199.954 427.888 196.855C432.517 193.602 429.93 194.56 423.731 198.397Z" fill="#BCD3DC"/>
<path fill-rule="evenodd" clip-rule="evenodd" d="M293.309 99.1579C293.309 100.912 296.366 102.828 297.444 101.75C297.75 101.443 297.671 100.336 297.27 99.2878C296.347 96.8845 293.309 96.7848 293.309 99.1579ZM411.073 245.374C410.06 248.009 411.475 249.608 413.402 248.009C415.481 246.283 415.479 245.034 413.395 244.234C412.49 243.888 411.446 244.4 411.073 245.374Z" fill="white"/>
</svg>
