<svg width="488" height="522" viewBox="0 0 488 522" fill="none" xmlns="http://www.w3.org/2000/svg">
<path d="M246.861 1.87671C123.032 1.87671 22.6489 102.26 22.6489 226.09C22.6489 349.919 123.032 450.302 246.861 450.302C370.69 450.302 471.073 349.919 471.073 226.09C471.073 102.26 370.69 1.87671 246.861 1.87671ZM246.861 376.453C163.818 376.453 96.4979 309.132 96.4979 226.089C96.4979 143.046 163.818 75.7257 246.861 75.7257C329.904 75.7257 397.224 143.044 397.224 226.089C397.224 309.132 329.904 376.453 246.861 376.453Z" fill="url(#paint0_radial_495_10119)"/>
<g opacity="0.15">
<path d="M104.399 125.862C93.6837 137.67 75.4234 138.555 63.6154 127.839C51.8074 117.123 50.9217 98.8624 61.638 87.0544C72.3531 75.2463 90.6134 74.3607 102.421 85.077C114.229 95.7932 115.115 114.052 104.399 125.862Z" fill="black"/>
<path d="M99.9637 121.836C91.4705 131.195 76.9984 131.897 67.6399 123.404C58.2815 114.91 57.5792 100.439 66.0724 91.081C74.5656 81.7226 89.0377 81.0203 98.3961 89.5135C107.755 98.0067 108.457 112.478 99.9637 121.836Z" fill="black"/>
<path d="M63.5001 123.385L51.6318 136.463L57.6592 141.933L69.5275 128.855L63.5001 123.385Z" fill="black"/>
<path d="M50.6929 152.819C48.8689 154.829 45.7614 154.98 43.7505 153.156L41.8174 151.401C39.8077 149.577 39.6567 146.468 41.4807 144.459L53.2467 131.494C55.0707 129.484 58.1782 129.333 60.188 131.157L62.121 132.912C64.1308 134.736 64.2818 137.843 62.4578 139.854L50.6929 152.819Z" fill="black"/>
</g>
<path d="M99.6048 121.068C88.8898 132.876 70.6295 133.762 58.8214 123.045C47.0134 112.329 46.1278 94.0687 56.8441 82.2607C67.5591 70.4526 85.8194 69.567 97.6275 80.2833C109.435 90.9995 110.321 109.259 99.6048 121.068Z" fill="#2563EB"/>
<path d="M95.1697 117.042C86.6765 126.401 72.2044 127.103 62.846 118.61C53.4875 110.117 52.7853 95.6458 61.2785 86.2874C69.7717 76.9289 84.2438 76.2267 93.6022 84.7199C102.961 93.2119 103.663 107.684 95.1697 117.042Z" fill="#AFD7E9"/>
<path d="M58.7066 118.591L46.8384 131.669L52.8658 137.139L64.734 124.061L58.7066 118.591Z" fill="#2563EB"/>
<path d="M45.8994 148.025C44.0755 150.035 40.968 150.186 38.957 148.362L37.024 146.607C35.0142 144.783 34.8632 141.675 36.6872 139.665L48.4533 126.7C50.2773 124.691 53.3848 124.54 55.3945 126.364L57.3276 128.118C59.3373 129.942 59.4883 133.05 57.6643 135.061L45.8994 148.025Z" fill="#2563EB"/>
<g opacity="0.15">
<path d="M227.185 58.8256C227.185 61.54 224.984 63.7403 222.27 63.7403H144.968C142.254 63.7403 140.054 61.54 140.054 58.8256V14.0586C140.054 11.3442 142.254 9.14392 144.968 9.14392H222.27C224.984 9.14392 227.185 11.3442 227.185 14.0586V58.8256Z" fill="black"/>
<path d="M193.387 33.6936L226.864 12.3557C226.217 10.612 224.617 9.35368 222.691 9.18829L183.119 34.4114L143.831 9.29136C142.07 9.7108 140.688 11.0758 140.231 12.8231L172.755 33.6169L140.092 59.1983C140.23 60.9995 141.323 62.5227 142.88 63.2598L177.144 36.4236L183.117 40.2417L188.995 36.4955L223.543 63.5546C225.251 63.0956 226.583 61.7509 227.02 60.0348L193.387 33.6936Z" fill="black"/>
</g>
<path d="M222.391 54.0319C222.391 56.7463 220.19 58.9466 217.476 58.9466H140.174C137.46 58.9466 135.26 56.7463 135.26 54.0319V9.265C135.26 6.55058 137.46 4.35028 140.174 4.35028H217.476C220.19 4.35028 222.391 6.55058 222.391 9.265V54.0319Z" fill="#2563EB"/>
<path d="M188.593 28.8999L222.07 7.56201C221.423 5.81832 219.823 4.55997 217.897 4.39459L178.325 29.6177L139.037 4.49766C137.276 4.9171 135.894 6.2821 135.437 8.0294L167.961 28.8232L135.298 54.4046C135.436 56.2058 136.529 57.729 138.086 58.4661L172.35 31.6299L178.323 35.448L184.201 31.7018L218.749 58.7609C220.457 58.3019 221.789 56.9572 222.226 55.2411L188.593 28.8999Z" fill="#AFD7E9"/>
<g opacity="0.15">
<path d="M380.4 58.0335C382.667 54.594 383.995 50.4822 383.995 46.0541C383.995 34.01 374.231 24.2464 362.187 24.2464C359.989 24.2464 357.871 24.5784 355.87 25.1836C355.137 13.8034 345.7 4.7937 334.134 4.7937C322.089 4.7937 312.326 14.5572 312.326 26.6013C312.326 29.2319 312.816 31.7425 313.669 34.0771C310.506 34.7973 307.874 36.8993 306.437 39.7192C304.548 39.0589 302.525 38.6826 300.411 38.6826C290.307 38.6826 282.116 46.8726 282.116 56.9777C282.116 57.3348 282.149 57.6823 282.169 58.0335H380.4Z" fill="black"/>
</g>
<path d="M375.606 53.2398C377.874 49.8003 379.202 45.6885 379.202 41.2604C379.202 29.2163 369.438 19.4527 357.394 19.4527C355.196 19.4527 353.077 19.7847 351.077 20.3899C350.344 9.00971 340.906 0 329.34 0C317.296 0 307.532 9.76352 307.532 21.8076C307.532 24.4382 308.023 26.9488 308.876 29.2834C305.712 30.0036 303.08 32.1056 301.643 34.9255C299.755 34.2652 297.732 33.8889 295.618 33.8889C285.514 33.8889 277.323 42.0789 277.323 52.184C277.323 52.5411 277.355 52.8886 277.375 53.2398H375.606Z" fill="#AFD7E9"/>
<g opacity="0.15">
<path d="M438.683 214.715L423.44 231.668H438.683V214.715Z" fill="black"/>
<path d="M441.14 214.672V231.668V234.086V234.124H422.749V303.541H487.455V214.672H441.14Z" fill="black"/>
<path d="M477.628 240.031H433.5V244.028H477.628V240.031Z" fill="black"/>
<path d="M477.628 249.86H433.5V253.857H477.628V249.86Z" fill="black"/>
<path d="M477.628 259.689H433.5V263.687H477.628V259.689Z" fill="black"/>
<path d="M477.628 269.517H433.5V273.514H477.628V269.517Z" fill="black"/>
<path d="M477.628 279.345H433.5V283.343H477.628V279.345Z" fill="black"/>
</g>
<path d="M433.889 209.921L418.646 226.874H433.889V209.921Z" fill="#AFD7E9"/>
<path d="M436.346 209.878V226.874V229.292V229.331H417.956V298.748H482.662V209.878H436.346Z" fill="#AFD7E9"/>
<path d="M472.834 235.238H428.706V239.234H472.834V235.238Z" fill="#2563EB"/>
<path d="M472.834 245.066H428.706V249.064H472.834V245.066Z" fill="#2563EB"/>
<path d="M472.834 254.895H428.706V258.893H472.834V254.895Z" fill="#2563EB"/>
<path d="M472.834 264.724H428.706V268.72H472.834V264.724Z" fill="#2563EB"/>
<path d="M472.834 274.552H428.706V278.55H472.834V274.552Z" fill="#2563EB"/>
<g opacity="0.15">
<path d="M427.193 85.0266C403.022 85.0266 383.427 104.622 383.427 128.793C383.427 152.963 403.022 172.558 427.193 172.558C451.364 172.558 470.958 152.963 470.958 128.793C470.958 104.622 451.364 85.0266 427.193 85.0266ZM427.193 163.42C408.069 163.42 392.566 147.916 392.566 128.794C392.566 109.67 408.069 94.1657 427.193 94.1657C446.317 94.1657 461.82 109.67 461.82 128.794C461.82 147.916 446.316 163.42 427.193 163.42Z" fill="black"/>
<path d="M427.192 93.5222L431.638 111.144L436.084 128.764H427.192H418.301L422.746 111.144L427.192 93.5222Z" fill="black"/>
<path d="M427.192 164.062L422.746 146.441L418.301 128.82H427.192H436.084L431.638 146.441L427.192 164.062Z" fill="black"/>
</g>
<path d="M422.399 80.2329C398.228 80.2329 378.633 99.8282 378.633 123.999C378.633 148.169 398.228 167.764 422.399 167.764C446.57 167.764 466.164 148.169 466.164 123.999C466.164 99.8282 446.57 80.2329 422.399 80.2329ZM422.399 158.626C403.275 158.626 387.772 143.122 387.772 123.999C387.772 104.876 403.275 89.3709 422.399 89.3709C441.523 89.3709 457.026 104.875 457.026 123.999C457.026 143.122 441.522 158.626 422.399 158.626Z" fill="#2563EB"/>
<path d="M422.398 88.7285L426.845 106.35L431.291 123.97H422.398H413.507L417.952 106.35L422.398 88.7285Z" fill="#AFD7E9"/>
<path d="M422.398 159.269L417.952 141.647L413.507 124.027H422.398H431.291L426.845 141.647L422.398 159.269Z" fill="#2563EB"/>
<g opacity="0.15">
<path d="M396.807 400.044L425.324 371.528C417.847 365.152 408.157 361.296 397.562 361.296C375.287 361.296 356.992 378.306 354.94 400.044H396.807Z" fill="black"/>
<path d="M395.075 406.187H354.793C355.843 428.232 373.564 445.906 395.627 446.887L395.075 406.187Z" fill="black"/>
<path d="M429.701 375.839L401.194 404.344L401.769 446.729C423.443 444.613 440.38 426.343 440.38 404.116C440.381 393.275 436.343 383.381 429.701 375.839Z" fill="black"/>
</g>
<path d="M392.013 395.25L420.53 366.734C413.053 360.359 403.363 356.502 392.768 356.502C370.493 356.502 352.198 373.512 350.146 395.25H392.013Z" fill="#AFD7E9"/>
<path d="M390.281 401.394H349.999C351.049 423.438 368.77 441.113 390.833 442.093L390.281 401.394Z" fill="#2563EB"/>
<path d="M424.907 371.045L396.4 399.55L396.976 441.935C418.649 439.82 435.586 421.55 435.586 399.323C435.587 388.482 431.55 378.588 424.907 371.045Z" fill="#2563EB"/>
<g opacity="0.15">
<path d="M57.6928 314C35.4885 314 17.4883 332 17.4883 354.205C17.4883 376.409 35.4885 394.409 57.6928 394.409C79.8971 394.409 97.8974 376.409 97.8974 354.205C97.8962 332 79.8959 314 57.6928 314ZM60.605 388.014C60.5666 388.018 60.5271 388.02 60.4875 388.024V375.654H71.3069C68.6548 379.926 65.0775 384.051 60.605 388.014ZM23.9226 357.634H33.8347C33.9677 361.98 34.7863 366.215 36.2783 370.329H27.8198C25.7394 366.485 24.3804 362.193 23.9226 357.634ZM60.4887 333.472V321.109C62.1294 322.747 66.3119 327.198 70.0677 333.472H60.4887ZM72.8888 338.795C74.7739 342.862 76.2599 347.426 76.8136 352.311H60.4887V338.795H72.8888ZM55.1642 333.472H46.9502C49.9103 328.531 53.1293 324.715 55.1642 322.517V333.472ZM55.1642 338.795V352.311H40.1887C40.746 347.431 42.2368 342.865 44.1267 338.795H55.1642ZM34.0037 352.311H23.8063C24.0736 347.463 25.3631 342.892 27.4543 338.795H37.3916C35.7258 342.919 34.4687 347.462 34.0037 352.311ZM39.9814 357.634H55.1642V370.329H42.9007C41.1151 366.213 40.1384 361.975 39.9814 357.634ZM55.1642 375.654V386.915C51.2561 383.29 48.0995 379.532 45.6907 375.654H55.1642ZM60.4887 370.329V357.634H77.0185C76.8603 361.975 75.8836 366.213 74.0992 370.329H60.4887ZM83.1652 357.634H91.4631C91.0053 362.192 89.6463 366.485 87.5658 370.329H80.7217C82.2137 366.216 83.0322 361.98 83.1652 357.634ZM82.9962 352.311C82.5301 347.462 81.2741 342.919 79.6095 338.795H87.9325C90.0238 342.892 91.3133 347.463 91.5805 352.311H82.9962ZM84.5578 333.472H77.1384C74.8638 329.136 72.2848 325.444 70.0042 322.574C75.7973 324.831 80.8163 328.63 84.5578 333.472ZM47.6369 321.777C45.2089 324.745 42.3519 328.723 39.8604 333.471H30.8267C35.0475 328.012 40.8886 323.867 47.6369 321.777ZM31.3887 375.654H38.6128C40.4524 379.193 42.8265 382.633 45.7146 385.966C40.0677 383.837 35.1398 380.246 31.3887 375.654ZM72.2189 384.885C74.6936 381.892 76.7453 378.811 78.3859 375.654H83.9945C80.8211 379.54 76.8028 382.711 72.2189 384.885Z" fill="black"/>
</g>
<path d="M52.8989 309.206C30.6946 309.206 12.6943 327.207 12.6943 349.411C12.6943 371.615 30.6946 389.615 52.8989 389.615C75.1032 389.615 93.1034 371.615 93.1034 349.411C93.1023 327.207 75.102 309.206 52.8989 309.206ZM55.811 383.221C55.7727 383.224 55.7331 383.227 55.6936 383.23V370.86H66.5129C63.8608 375.133 60.2835 379.258 55.811 383.221ZM19.1286 352.841H29.0408C29.1738 357.186 29.9923 361.421 31.4843 365.536H23.0259C20.9454 361.691 19.5864 357.4 19.1286 352.841ZM55.6948 328.678V316.315C57.3354 317.954 61.5179 322.405 65.2738 328.678H55.6948ZM68.0948 334.002C69.98 338.068 71.466 342.633 72.0197 347.517H55.6948V334.002H68.0948ZM50.3702 328.678H42.1563C45.1164 323.737 48.3353 319.921 50.3702 317.724V328.678ZM50.3702 334.002V347.517H35.3948C35.9521 342.637 37.4429 338.071 39.3328 334.002H50.3702ZM29.2097 347.517H19.0124C19.2796 342.67 20.5691 338.098 22.6604 334.002H32.5977C30.9319 338.125 29.6747 342.669 29.2097 347.517ZM35.1875 352.841H50.3702V365.536H38.1068C36.3212 361.419 35.3445 357.181 35.1875 352.841ZM50.3702 370.86V382.122C46.4622 378.497 43.3055 374.738 40.8967 370.86H50.3702ZM55.6948 365.536V352.841H72.2246C72.0664 357.181 71.0897 361.419 69.3052 365.536H55.6948ZM78.3713 352.841H86.6691C86.2113 357.398 84.8523 361.691 82.7719 365.536H75.9277C77.4197 361.423 78.2383 357.186 78.3713 352.841ZM78.2023 347.517C77.7361 342.669 76.4802 338.125 74.8156 334.002H83.1386C85.2298 338.098 86.5193 342.67 86.7866 347.517H78.2023ZM79.7638 328.678H72.3444C70.0698 324.342 67.4908 320.65 65.2102 317.78C71.0034 320.038 76.0224 323.837 79.7638 328.678ZM42.843 316.983C40.415 319.951 37.5579 323.929 35.0664 328.677H26.0327C30.2536 323.218 36.0947 319.073 42.843 316.983ZM26.5948 370.86H33.8189C35.6584 374.399 38.0325 377.84 40.9207 381.173C35.2737 379.043 30.3458 375.453 26.5948 370.86ZM67.4249 380.092C69.8997 377.098 71.9513 374.017 73.592 370.86H79.2006C76.0272 374.747 72.0089 377.918 67.4249 380.092Z" fill="#2563EB"/>
<path d="M328.777 498.359L305.349 495.03L198.053 518.187L276.369 519.52L328.777 498.359Z" fill="url(#paint1_linear_495_10119)"/>
<path d="M238.293 495.541L208.403 495.03L95.6641 520.667L173.98 522L238.293 495.541Z" fill="url(#paint2_linear_495_10119)"/>
<path opacity="0.1" d="M225.034 133.747L187.184 77.5293L185.411 78.7529C185.11 77.0619 184.086 71.9015 182.188 68.1026C179.886 63.4994 178.736 58.2036 178.736 58.2036C178.736 58.2036 175.512 60.4471 177.584 68.7629C172.749 68.1014 160.55 62.8079 157.097 58.2036C155.255 56.823 152.723 58.2036 152.723 58.2036C152.723 58.2036 159.858 67.6412 163.312 69.9433C158.708 68.1026 152.493 63.2693 151.111 62.5778C149.73 61.8864 148.809 63.9584 148.809 63.9584C148.809 63.9584 149.248 64.4749 149.988 65.2683L151.571 72.7428C151.571 72.7428 164.319 85.1608 169.181 85.5959C170.677 85.7301 172.113 85.7804 173.385 85.7876C173.607 86.0573 173.827 86.3245 174.042 86.5894L168.304 90.5465C168.304 90.5465 198.562 144.235 207.942 156.361C217.321 168.487 231.127 190.464 231.127 190.464L255.966 157.978L225.034 133.747Z" fill="url(#paint3_linear_495_10119)"/>
<path opacity="0.2" d="M206.64 149.197L155.223 105.046L153.837 106.696C153.098 105.146 150.742 100.442 147.903 97.2841C144.461 93.4563 141.947 88.6578 141.947 88.6578C141.947 88.6578 139.435 91.6767 143.64 99.144C138.803 99.7899 125.636 97.9252 121.084 94.4031C118.942 93.5606 116.867 95.5643 116.867 95.5643C116.867 95.5643 126.252 102.768 130.194 104.071C125.266 103.518 117.99 100.508 116.475 100.209C114.961 99.9098 114.623 102.152 114.623 102.152C114.623 102.152 115.185 102.533 116.107 103.102L119.619 109.889C119.619 109.889 135.205 118.477 140.009 117.604C141.488 117.336 142.885 117.004 144.113 116.673C144.4 116.875 144.682 117.074 144.961 117.271L140.48 122.609C140.48 122.609 183.906 166.337 196.168 175.538C208.43 184.739 227.575 202.261 227.575 202.261L242.898 164.346L206.64 149.197Z" fill="url(#paint4_linear_495_10119)"/>
<path opacity="0.3" d="M195.489 170.295L134.661 140.413L133.732 142.357C132.629 141.039 129.17 137.075 125.631 134.729C121.342 131.884 117.706 127.866 117.706 127.866C117.706 127.866 116.029 131.417 121.969 137.595C117.448 139.431 104.233 140.92 98.9446 138.647C96.6592 138.368 95.1528 140.827 95.1528 140.827C95.1528 140.827 106.042 145.454 110.183 145.729C105.275 146.428 97.4765 145.333 95.9354 145.422C94.3942 145.511 94.6279 147.766 94.6279 147.766C94.6279 147.766 95.2678 147.995 96.3033 148.315L101.401 154.006C101.401 154.006 118.641 158.421 123.074 156.376C124.439 155.746 125.708 155.075 126.815 154.447C127.143 154.571 127.466 154.692 127.786 154.814L124.783 161.103C124.783 161.103 177.768 192.576 191.942 198.416C206.116 204.256 229.035 216.431 229.035 216.431L234.385 175.888L195.489 170.295Z" fill="url(#paint5_linear_495_10119)"/>
<path opacity="0.1" d="M311.252 222.823L377.777 235.761L377.342 237.872C379.018 237.489 384.167 236.419 388.406 236.688C393.542 237.012 398.867 236.008 398.867 236.008C398.867 236.008 398.057 239.852 389.591 241.185C392.085 245.38 401.716 254.55 407.303 255.934C409.292 257.092 409.008 259.962 409.008 259.962C409.008 259.962 397.535 257.07 394.068 254.787C397.558 258.31 404.432 262.148 405.607 263.151C406.781 264.153 405.233 265.809 405.233 265.809C405.233 265.809 404.586 265.606 403.567 265.234L396.066 266.69C396.066 266.69 379.661 259.792 377.366 255.485C376.659 254.158 376.053 252.857 375.55 251.688C375.215 251.589 374.884 251.491 374.556 251.395L373.149 258.221C373.149 258.221 311.913 251.288 297.089 247.378C282.266 243.468 256.647 239.322 256.647 239.322L276.879 203.784L311.252 222.823Z" fill="url(#paint6_linear_495_10119)"/>
<path opacity="0.2" d="M312.645 239.591L371.551 273.104L370.465 274.964C372.174 275.137 377.397 275.768 381.328 277.376C386.092 279.325 391.458 280.074 391.458 280.074C391.458 280.074 389.464 283.457 381.015 282.017C382.039 286.788 388.236 298.554 393.086 301.65C394.602 303.383 393.415 306.011 393.415 306.011C393.415 306.011 383.468 299.606 380.912 296.335C383.093 300.789 388.382 306.621 389.174 307.948C389.967 309.273 387.97 310.347 387.97 310.347C387.97 310.347 387.421 309.947 386.575 309.27L379.002 308.254C379.002 308.254 365.66 296.477 364.86 291.66C364.615 290.178 364.455 288.751 364.352 287.483C364.066 287.28 363.784 287.082 363.504 286.887L359.99 292.905C359.99 292.905 304.177 266.773 291.379 258.332C278.583 249.892 255.629 237.779 255.629 237.779L286.154 210.567L312.645 239.591Z" fill="url(#paint7_linear_495_10119)"/>
<path opacity="0.3" d="M308.548 239.267L346.959 295.103L345.171 296.304C346.634 297.204 351.058 300.049 353.895 303.21C357.333 307.04 361.837 310.052 361.837 310.052C361.837 310.052 358.568 312.228 351.592 307.249C350.433 311.989 350.882 325.281 353.899 330.181C354.507 332.401 352.294 334.25 352.294 334.25C352.294 334.25 346.133 324.149 345.258 320.092C345.281 325.051 347.498 332.606 347.633 334.144C347.77 335.683 345.504 335.779 345.504 335.779C345.504 335.779 345.184 335.18 344.718 334.202L338.344 329.986C338.344 329.986 331.469 313.571 332.85 308.889C333.274 307.447 333.753 306.093 334.213 304.908C334.044 304.601 333.877 304.299 333.709 304.002L327.923 307.887C327.923 307.887 289.081 260.041 281.241 246.867C273.402 233.693 258.024 212.788 258.024 212.788L297.357 201.599L308.548 239.267Z" fill="url(#paint8_linear_495_10119)"/>
<path d="M315.458 486.696C315.458 486.696 315.225 497.867 315.458 502.077C315.553 503.765 302.985 504.83 302.705 498.359C302.596 495.842 301.738 486.696 301.738 486.696H315.458Z" fill="#14244A"/>
<path d="M317.869 486.696C317.869 486.696 323.121 494.43 327.121 495.473C328.684 495.88 328.587 497.83 328.775 498.36C328.962 498.889 327.456 501.7 321.648 501.14C315.839 500.578 311.332 498.36 311.332 498.36L317.869 486.696Z" fill="#14244A"/>
<path d="M274.667 141.845C274.259 138.184 278.937 133.1 282.802 121.304C286.666 109.508 277.306 93.8482 277.306 93.8482C277.306 93.8482 265.718 90.7982 264.904 90.5945C264.091 90.3919 245.991 91.6119 245.991 91.6119C245.991 91.6119 238.466 111.339 238.669 116.829C238.872 122.32 241.922 135.743 241.922 135.743L250.057 145.458L274.667 141.845Z" fill="#DBA590"/>
<path d="M246.905 107.982C246.448 108.136 246.143 122.93 246.143 122.93L243.703 123.998L242.025 105.085L246.905 107.982Z" fill="url(#paint9_linear_495_10119)"/>
<path d="M277.306 91.51C269.023 88.3066 247.974 85.2567 243.093 88.7644C238.212 92.2722 236.534 103.255 236.534 103.255L240.9 106.428C240.9 106.428 242.643 108.718 245.127 112.029L249.652 106.306L253.008 112.16L252.338 121.752C256.621 127.606 260.728 133.403 261.854 135.59C266.736 136.048 275.919 137.117 275.919 137.117C275.919 137.117 286.439 124.76 286.349 118.965C286.258 113.169 285.588 94.7122 277.306 91.51Z" fill="url(#paint10_linear_495_10119)"/>
<path d="M250.547 111.214L247.987 114.541L249.267 117.255L247.987 119.71L249.267 120.326C249.267 120.326 249.113 118.483 249.267 118.483C249.422 118.483 250.547 116.128 250.547 116.128L252.082 113.978L249.826 114.54L250.547 111.214Z" fill="#B88C7B"/>
<path d="M240.289 147.124L246.244 139.726C246.244 139.726 264.559 132.901 274.569 138.283C283.958 143.33 282.514 147.124 282.514 147.124" fill="#FBFFFF"/>
<path d="M242.211 143.328C233.312 145.541 205.842 159.427 205.842 159.427L227.53 285.168L291.916 283.726L313.167 160.392C313.167 160.392 287.26 143.448 278.495 140.753C268.213 137.589 252.651 140.733 242.211 143.328Z" fill="#1B3067"/>
<path d="M275.068 271.813L267.279 304.295C267.279 304.295 252.379 362.041 241.407 390.191C244.603 418.342 244.834 486.653 244.834 486.653C244.834 486.653 229.514 486.641 219.551 485.197C192.266 383.422 228.379 262.431 228.379 262.431L275.068 271.813Z" fill="url(#paint11_linear_495_10119)"/>
<path d="M295.164 258.1C295.164 258.1 313.371 359.152 313.167 384.736C316.572 393.719 325.01 466.79 324.739 491.154C324.656 498.632 295.164 486.653 295.164 486.653C295.164 486.653 284.498 408.957 284.53 390.191C278.064 377.198 254.779 274.703 254.779 274.703L295.164 258.1Z" fill="url(#paint12_linear_495_10119)"/>
<path d="M126.315 185.892L116.318 193.251C116.318 193.251 103.065 175.303 97.5401 173.231C92.0154 171.159 85.5703 163.564 85.5703 163.564C85.5703 163.564 86.4907 161.492 87.8725 162.183C89.2542 162.873 95.4693 167.708 100.074 169.549C96.6197 167.247 89.4843 157.809 89.4843 157.809C89.4843 157.809 92.0166 156.428 93.8586 157.809C97.3112 162.413 109.511 167.708 114.346 168.368C112.273 160.052 115.497 157.809 115.497 157.809C115.497 157.809 116.648 163.104 118.95 167.708C121.252 172.311 122.269 178.929 122.269 178.929L126.315 185.892Z" fill="#DBA590"/>
<path d="M115.036 185.2C115.036 185.2 110.805 185.635 105.943 185.2C101.081 184.766 88.3338 172.348 88.3338 172.348L86.7495 164.872L115.036 185.2Z" fill="#DBA590"/>
<path d="M179.657 212.152L121.17 177.912L109.808 197.83C109.808 197.83 160.357 233.083 174.068 239.94C187.778 246.799 205.843 194.762 205.843 194.762L179.657 212.152Z" fill="url(#paint13_linear_495_10119)"/>
<path d="M205.843 159.427L164.5 218.042C164.5 218.042 169.37 242.218 178.752 239.334C188.136 236.448 234.117 188.087 234.117 188.087L205.843 159.427Z" fill="url(#paint14_linear_495_10119)"/>
<path d="M347.855 205.633L361.898 207.244C361.898 207.244 371.106 195.045 376.63 192.973C382.155 190.901 388.6 183.305 388.6 183.305C388.6 183.305 387.68 181.233 386.298 181.925C384.916 182.615 378.701 187.449 374.097 189.29C377.551 186.988 384.686 177.552 384.686 177.552C384.686 177.552 382.154 176.17 380.312 177.552C376.859 182.156 364.659 187.449 359.825 188.111C361.897 179.795 358.673 177.552 358.673 177.552C358.673 177.552 357.523 182.846 355.22 187.449C352.918 192.053 351.901 198.67 351.901 198.67L347.855 205.633Z" fill="#DBA590"/>
<path d="M359.135 204.942C359.135 204.942 363.365 205.377 368.227 204.942C373.089 204.508 385.837 192.09 385.837 192.09L387.421 184.614L359.135 204.942Z" fill="#DBA590"/>
<path d="M333.17 249.496L368.227 214.793L353.97 195.304L316.618 225.079L333.17 249.496Z" fill="url(#paint15_linear_495_10119)"/>
<path d="M274.569 172.427L315.467 250.573C315.467 250.573 332.605 256.61 334.168 246.919C335.732 237.227 312.781 159.748 312.781 159.748L274.569 172.427Z" fill="url(#paint16_linear_495_10119)"/>
<path d="M217.169 203.511C217.169 203.511 215.3 299.603 215.252 320.897C225.31 323.423 280.528 319.092 280.528 319.092L295.325 316.205L307.235 312.594C307.235 312.594 303.264 272.535 299.295 256.294C295.326 240.054 298.212 229.587 298.212 229.587L297.798 216.811L217.169 203.511Z" fill="url(#paint17_linear_495_10119)"/>
<path d="M221.796 482.863C221.796 482.863 216.086 495.124 202.981 494.067C202.134 494.702 202.981 498.507 202.981 498.507C202.981 498.507 214.185 500.62 217.991 498.507C221.796 496.391 224.318 495.03 224.318 495.03C224.318 495.03 224.113 498.48 224.995 499.272C227.476 501.501 240.773 498.027 240.773 498.027L242.041 484.283L221.796 482.863Z" fill="#14244A"/>
<path d="M269.385 153.864L266.518 199.5L269.385 241.069L272.253 199.5L269.385 153.864Z" fill="#062053"/>
<path d="M304.408 162.201L302.483 222.4L309.93 162.201H304.408Z" fill="#062053"/>
<path d="M328.768 216.874L333.478 235.236L332.454 220.561L342.423 226.089L331.431 216.874H328.768Z" fill="#091844"/>
<path d="M209.354 162.201L218.295 176.936L216.811 222.4L215.253 206.09V177.914L209.354 162.201Z" fill="#062053"/>
<path d="M171.272 207.244L164.499 219.639L166.08 209.239L154.409 211.204L171.272 207.244Z" fill="#091844"/>
<path d="M265.433 320.147L289.762 317.292L304.408 313.454L305.812 321.843L285.819 329.702L265.433 320.147Z" fill="#091844"/>
<path d="M263.012 320.3L254.779 349.411L246.861 329.702L226.282 323.457L215.954 320.3L243.789 321.578L263.012 320.3Z" fill="#091844"/>
<path d="M311.056 383.658C311.056 383.658 289.354 404.237 289.761 403.316C290.169 402.394 300.405 388.402 300.405 388.402H287.098L301.534 383.657H311.056V383.658Z" fill="#091844"/>
<path d="M242.211 383.658L231.709 389.699C231.709 389.699 220.446 387.142 219.627 386.679C218.809 386.217 229.72 390.928 230.919 391.338C232.117 391.746 223.722 398.914 223.722 398.914L233.96 395.023L237.647 391.286L239.484 388.401L236.623 400.141L241.406 390.189L242.211 383.658Z" fill="#091844"/>
<path d="M252.789 122.374L251.672 125.037H248.807L246.861 123.194L248.704 123.999H250.957L252.479 119.711L252.789 122.374Z" fill="#B88C7B"/>
<g opacity="0.15">
<path d="M81.2046 253.989C81.2046 256.704 79.0043 258.904 76.2899 258.904H9.70817C6.99376 258.904 4.79346 256.704 4.79346 253.989V210.988C4.79346 208.273 6.99376 206.073 9.70817 206.073H76.2887C79.0031 206.073 81.2034 208.273 81.2034 210.988L81.2046 253.989Z" fill="black"/>
<path d="M55.987 247.846C55.987 247.846 49.0242 265.864 55.987 282.658C35.9207 275.286 36.738 251.942 36.738 251.942L55.987 247.846Z" fill="black"/>
<path d="M64.8213 218.411H23.3979V222.957H64.8213V218.411Z" fill="black"/>
<path d="M64.8213 229.745H23.3979V234.292H64.8213V229.745Z" fill="black"/>
<path d="M64.8213 240.638H23.3979V245.184H64.8213V240.638Z" fill="black"/>
</g>
<path d="M76.4112 249.196C76.4112 251.91 74.2109 254.11 71.4965 254.11H4.91472C2.2003 254.11 0 251.91 0 249.196V206.194C0 203.479 2.2003 201.279 4.91472 201.279H71.4953C74.2097 201.279 76.41 203.479 76.41 206.194L76.4112 249.196Z" fill="#2563EB"/>
<path d="M51.1931 243.052C51.1931 243.052 44.2303 261.071 51.1931 277.864C31.1268 270.493 31.9441 247.149 31.9441 247.149L51.1931 243.052Z" fill="#2563EB"/>
<path d="M60.0273 213.617H18.604V218.164H60.0273V213.617Z" fill="#AFD7E9"/>
<path d="M60.0273 224.952H18.604V229.498H60.0273V224.952Z" fill="#AFD7E9"/>
<path d="M60.0273 235.844H18.604V240.391H60.0273V235.844Z" fill="#AFD7E9"/>
<g opacity="0.15">
<path d="M164.049 383.456H153.605V469.62H164.049V383.456Z" fill="black"/>
<path d="M170.401 441.295C170.401 439.249 169.41 437.48 167.428 435.988C165.446 434.498 161.77 433.174 156.399 432.024C148.215 430.361 142.045 427.9 137.889 424.639C133.733 421.38 131.655 416.936 131.655 411.308C131.655 405.341 134.158 400.279 139.168 396.123C144.176 391.967 150.878 389.889 159.275 389.889C168.099 389.889 175.12 391.957 180.342 396.092C185.562 400.226 188.067 405.448 187.855 411.756L187.727 412.139H169.696C169.696 409.368 168.812 407.11 167.043 405.36C165.274 403.613 162.684 402.741 159.275 402.741C156.248 402.741 153.872 403.475 152.147 404.946C150.42 406.416 149.557 408.261 149.557 410.476C149.557 412.607 150.462 414.354 152.275 415.719C154.086 417.082 157.762 418.297 163.304 419.363C171.828 421.068 178.158 423.573 182.293 426.874C186.427 430.178 188.495 434.729 188.495 440.526C188.495 446.749 185.831 451.831 180.502 455.774C175.174 459.718 168.141 461.688 159.403 461.688C150.197 461.688 142.918 459.355 137.569 454.687C132.219 450.019 129.673 444.703 129.929 438.736L130.057 438.353H147.128C147.256 442.061 148.471 444.745 150.772 446.409C153.074 448.072 156.079 448.901 159.788 448.901C163.24 448.901 165.871 448.219 167.684 446.856C169.494 445.493 170.401 443.639 170.401 441.295Z" fill="black"/>
</g>
<path d="M159.255 378.662H148.811V464.826H159.255V378.662Z" fill="#2563EB"/>
<path d="M165.607 436.501C165.607 434.456 164.616 432.687 162.634 431.195C160.652 429.704 156.976 428.381 151.605 427.23C143.421 425.567 137.251 423.107 133.095 419.846C128.939 416.586 126.861 412.142 126.861 406.514C126.861 400.548 129.364 395.485 134.374 391.329C139.382 387.173 146.084 385.095 154.481 385.095C163.305 385.095 170.326 387.164 175.548 391.298C180.768 395.433 183.273 400.654 183.061 406.963L182.933 407.345H164.902C164.902 404.574 164.018 402.316 162.249 400.567C160.48 398.819 157.89 397.947 154.481 397.947C151.454 397.947 149.078 398.682 147.353 400.152C145.626 401.623 144.763 403.467 144.763 405.683C144.763 407.814 145.668 409.561 147.481 410.926C149.292 412.288 152.969 413.504 158.51 414.569C167.034 416.274 173.364 418.779 177.499 422.081C181.634 425.385 183.701 429.935 183.701 435.732C183.701 441.955 181.037 447.038 175.709 450.981C170.38 454.925 163.347 456.895 154.609 456.895C145.403 456.895 138.124 454.561 132.775 449.894C127.425 445.226 124.879 439.91 125.135 433.943L125.263 433.559H142.334C142.462 437.267 143.677 439.952 145.978 441.615C148.28 443.278 151.285 444.108 154.994 444.108C158.447 444.108 161.077 443.426 162.89 442.062C164.7 440.699 165.607 438.845 165.607 436.501Z" fill="#2563EB"/>
<defs>
<radialGradient id="paint0_radial_495_10119" cx="0" cy="0" r="1" gradientUnits="userSpaceOnUse" gradientTransform="translate(245.466 88.9663) scale(409.081 409.081)">
<stop stop-color="#9BB4BF"/>
<stop offset="0.1299" stop-color="#B0C4CD"/>
<stop offset="0.3751" stop-color="#D2DDE2"/>
<stop offset="0.6078" stop-color="#EBF0F2"/>
<stop offset="0.8209" stop-color="#FAFBFC"/>
<stop offset="0.996" stop-color="white"/>
</radialGradient>
<linearGradient id="paint1_linear_495_10119" x1="261.059" y1="516.589" x2="271.086" y2="485.309" gradientUnits="userSpaceOnUse">
<stop stop-color="white" stop-opacity="0"/>
<stop offset="0.9973" stop-color="#666C90"/>
</linearGradient>
<linearGradient id="paint2_linear_495_10119" x1="164.275" y1="517.648" x2="175.782" y2="481.75" gradientUnits="userSpaceOnUse">
<stop stop-color="white" stop-opacity="0"/>
<stop offset="0.9973" stop-color="#666C90"/>
</linearGradient>
<linearGradient id="paint3_linear_495_10119" x1="230.644" y1="164.908" x2="213.896" y2="134.03" gradientUnits="userSpaceOnUse">
<stop stop-color="#161D43"/>
<stop offset="0.2905" stop-color="#182553"/>
<stop offset="0.6773" stop-color="#1A2D62"/>
<stop offset="0.996" stop-color="#1B3067"/>
</linearGradient>
<linearGradient id="paint4_linear_495_10119" x1="220.321" y1="177.751" x2="195.976" y2="152.427" gradientUnits="userSpaceOnUse">
<stop stop-color="#161D43"/>
<stop offset="0.2905" stop-color="#182553"/>
<stop offset="0.6773" stop-color="#1A2D62"/>
<stop offset="0.996" stop-color="#1B3067"/>
</linearGradient>
<linearGradient id="paint5_linear_495_10119" x1="215.879" y1="194.516" x2="185.972" y2="176.089" gradientUnits="userSpaceOnUse">
<stop stop-color="#161D43"/>
<stop offset="0.2905" stop-color="#182553"/>
<stop offset="0.6773" stop-color="#1A2D62"/>
<stop offset="0.996" stop-color="#1B3067"/>
</linearGradient>
<linearGradient id="paint6_linear_495_10119" x1="280.37" y1="229.808" x2="315.334" y2="233.191" gradientUnits="userSpaceOnUse">
<stop stop-color="#161D43"/>
<stop offset="0.2905" stop-color="#182553"/>
<stop offset="0.6773" stop-color="#1A2D62"/>
<stop offset="0.996" stop-color="#1B3067"/>
</linearGradient>
<linearGradient id="paint7_linear_495_10119" x1="281.153" y1="236.341" x2="313.203" y2="250.719" gradientUnits="userSpaceOnUse">
<stop stop-color="#161D43"/>
<stop offset="0.2905" stop-color="#182553"/>
<stop offset="0.6773" stop-color="#1A2D62"/>
<stop offset="0.996" stop-color="#1B3067"/>
</linearGradient>
<linearGradient id="paint8_linear_495_10119" x1="281.618" y1="222.617" x2="304.198" y2="249.525" gradientUnits="userSpaceOnUse">
<stop stop-color="#161D43"/>
<stop offset="0.2905" stop-color="#182553"/>
<stop offset="0.6773" stop-color="#1A2D62"/>
<stop offset="0.996" stop-color="#1B3067"/>
</linearGradient>
<linearGradient id="paint9_linear_495_10119" x1="278.625" y1="136.386" x2="243.871" y2="115.113" gradientUnits="userSpaceOnUse">
<stop stop-color="#161D43"/>
<stop offset="0.2905" stop-color="#182553"/>
<stop offset="0.6773" stop-color="#1A2D62"/>
<stop offset="0.996" stop-color="#1B3067"/>
</linearGradient>
<linearGradient id="paint10_linear_495_10119" x1="276.85" y1="131.033" x2="254.005" y2="90.2131" gradientUnits="userSpaceOnUse">
<stop stop-color="#161D43"/>
<stop offset="0.2905" stop-color="#182553"/>
<stop offset="0.6773" stop-color="#1A2D62"/>
<stop offset="0.996" stop-color="#1B3067"/>
</linearGradient>
<linearGradient id="paint11_linear_495_10119" x1="240.517" y1="299.612" x2="247.308" y2="462.597" gradientUnits="userSpaceOnUse">
<stop stop-color="#161D43"/>
<stop offset="0.2905" stop-color="#182553"/>
<stop offset="0.6773" stop-color="#1A2D62"/>
<stop offset="0.996" stop-color="#1B3067"/>
</linearGradient>
<linearGradient id="paint12_linear_495_10119" x1="286.305" y1="297.704" x2="293.096" y2="460.689" gradientUnits="userSpaceOnUse">
<stop stop-color="#161D43"/>
<stop offset="0.2905" stop-color="#182553"/>
<stop offset="0.6773" stop-color="#1A2D62"/>
<stop offset="0.996" stop-color="#1B3067"/>
</linearGradient>
<linearGradient id="paint13_linear_495_10119" x1="194.531" y1="220.921" x2="122.926" y2="173.583" gradientUnits="userSpaceOnUse">
<stop stop-color="#161D43"/>
<stop offset="0.2905" stop-color="#182553"/>
<stop offset="0.6773" stop-color="#1A2D62"/>
<stop offset="0.996" stop-color="#1B3067"/>
</linearGradient>
<linearGradient id="paint14_linear_495_10119" x1="163.688" y1="225.108" x2="208.876" y2="185.841" gradientUnits="userSpaceOnUse">
<stop stop-color="#161D43"/>
<stop offset="0.2905" stop-color="#182553"/>
<stop offset="0.6773" stop-color="#1A2D62"/>
<stop offset="0.996" stop-color="#1B3067"/>
</linearGradient>
<linearGradient id="paint15_linear_495_10119" x1="314.25" y1="246.739" x2="360.589" y2="205.593" gradientUnits="userSpaceOnUse">
<stop stop-color="#161D43"/>
<stop offset="0.2905" stop-color="#182553"/>
<stop offset="0.6773" stop-color="#1A2D62"/>
<stop offset="0.996" stop-color="#1B3067"/>
</linearGradient>
<linearGradient id="paint16_linear_495_10119" x1="323.496" y1="251.109" x2="304.721" y2="197.579" gradientUnits="userSpaceOnUse">
<stop stop-color="#161D43"/>
<stop offset="0.2905" stop-color="#182553"/>
<stop offset="0.6773" stop-color="#1A2D62"/>
<stop offset="0.996" stop-color="#1B3067"/>
</linearGradient>
<linearGradient id="paint17_linear_495_10119" x1="261.41" y1="321.912" x2="258.614" y2="234.826" gradientUnits="userSpaceOnUse">
<stop stop-color="#161D43"/>
<stop offset="0.2905" stop-color="#182553"/>
<stop offset="0.6773" stop-color="#1A2D62"/>
<stop offset="0.996" stop-color="#1B3067"/>
</linearGradient>
</defs>
</svg>
