<svg width="488" height="163" viewBox="0 0 488 163" fill="none" xmlns="http://www.w3.org/2000/svg">
<mask id="mask0_993_9709" style="mask-type:luminance" maskUnits="userSpaceOnUse" x="37" y="0" width="451" height="163">
<path d="M488 0H37.4049V162.224H488V0Z" fill="white"/>
</mask>
<g mask="url(#mask0_993_9709)">
<path d="M39.478 9.44272L39.5182 9.59897C39.6548 10.6771 54.1298 117.5 55.7934 127.563C57.2964 136.635 77.4857 137.427 77.6786 137.438H77.7751C81.1346 137.661 414.106 159.661 434.697 161.823C453.375 163.781 455.843 155.484 455.939 155.135L455.963 155.073L486.272 86.6979C488.739 75.2604 476.82 72.8802 476.33 72.7865C472.255 72.0677 68.5082 0.666675 51.3167 0.192717C46.7356 0.0677168 43.4001 0.776049 41.431 2.3073C37.9831 4.97918 39.4619 9.40105 39.478 9.44272Z" fill="#82699D"/>
</g>
<path d="M10.8904 15.2188C16.9264 11.6979 24.7063 10.0677 32.8158 10.6302L422.578 37.4948C440.468 38.7292 455.016 50.2865 455.016 63.2604V124.682C455.016 131.406 451.045 137.578 444.125 141.609C438.869 144.677 432.27 146.307 425.302 146.307C424.282 146.307 423.237 146.271 422.2 146.198L32.438 119.333C14.5474 118.099 9.15527e-05 106.536 9.15527e-05 93.5625V32.1407C9.15527e-05 25.4219 3.97046 19.25 10.8904 15.2188ZM3.58469 93.5625C3.58469 105.391 16.7013 115.906 32.8158 117.016L422.578 143.891C429.65 144.375 436.458 142.953 441.722 139.88C447.895 136.292 451.431 130.75 451.431 124.682V63.2604C451.431 51.4427 438.314 40.9167 422.2 39.8073L32.438 12.9427C31.5218 12.875 30.6217 12.849 29.7135 12.849C23.6293 12.849 17.8828 14.2709 13.2935 16.9427C7.12103 20.5365 3.58469 26.0782 3.58469 32.1407V93.5625Z" fill="#28334F"/>
<path d="M3.58435 32.1405V93.5624C3.58435 105.391 16.701 115.906 32.8155 117.016L422.577 143.891C429.65 144.375 436.457 142.953 441.722 139.88C447.894 136.292 451.431 130.75 451.431 124.682V63.2603C451.431 51.4426 438.314 40.9166 422.2 39.8072L32.4377 12.9426C31.5215 12.8749 30.6213 12.8489 29.7131 12.8489C23.629 12.8489 17.8824 14.2708 13.2932 16.9426C7.1207 20.5364 3.58435 26.078 3.58435 32.1405Z" fill="#FBF6FD"/>
<path d="M296.036 98.546C294.02 98.546 292.228 98.224 290.66 97.58C289.092 96.936 287.748 96.012 286.628 94.808C285.536 93.576 284.696 92.078 284.108 90.314C283.52 88.55 283.226 86.534 283.226 84.266C283.226 80.99 283.786 78.288 284.906 76.16C286.026 74.004 287.566 72.394 289.526 71.33C291.486 70.266 293.712 69.734 296.204 69.734C298.136 69.734 299.886 70.056 301.454 70.7C303.022 71.316 304.352 72.24 305.444 73.472C306.564 74.676 307.432 76.188 308.048 78.008C308.664 79.8 308.972 81.858 308.972 84.182C308.972 86.506 308.664 88.564 308.048 90.356C307.46 92.12 306.606 93.618 305.486 94.85C304.366 96.054 303.008 96.978 301.412 97.622C299.844 98.238 298.052 98.546 296.036 98.546ZM296.162 94.262C297.758 94.262 299.088 93.884 300.152 93.128C301.244 92.344 302.07 91.224 302.63 89.768C303.218 88.312 303.512 86.534 303.512 84.434C303.512 82.278 303.218 80.43 302.63 78.89C302.042 77.35 301.188 76.188 300.068 75.404C298.976 74.592 297.632 74.186 296.036 74.186C294.524 74.186 293.208 74.578 292.088 75.362C290.996 76.118 290.156 77.252 289.568 78.764C288.98 80.248 288.686 82.068 288.686 84.224C288.686 85.848 288.854 87.29 289.19 88.55C289.526 89.782 290.002 90.818 290.618 91.658C291.262 92.498 292.046 93.142 292.97 93.59C293.922 94.038 294.986 94.262 296.162 94.262ZM315.85 98V83.468H312.196V79.478L317.95 79.772V79.016C317.082 78.764 316.354 78.4 315.766 77.924C315.178 77.42 314.744 76.832 314.464 76.16C314.212 75.488 314.086 74.76 314.086 73.976C314.086 72.772 314.38 71.736 314.968 70.868C315.556 70 316.382 69.328 317.446 68.852C318.51 68.348 319.77 68.096 321.226 68.096C322.43 68.096 323.522 68.25 324.502 68.558C325.51 68.866 326.322 69.244 326.938 69.692L326.518 74.564C325.902 74.06 325.188 73.668 324.376 73.388C323.564 73.08 322.78 72.926 322.024 72.926C321.156 72.926 320.442 73.178 319.882 73.682C319.322 74.158 319.042 74.942 319.042 76.034C319.042 76.734 319.168 77.308 319.42 77.756C319.672 78.176 319.994 78.512 320.386 78.764C320.806 78.988 321.212 79.156 321.604 79.268H326.728V83.468H321.016V98H315.85ZM332.871 98V83.468H329.217V79.478L334.971 79.772V79.016C334.103 78.764 333.375 78.4 332.787 77.924C332.199 77.42 331.765 76.832 331.485 76.16C331.233 75.488 331.107 74.76 331.107 73.976C331.107 72.772 331.401 71.736 331.989 70.868C332.577 70 333.403 69.328 334.467 68.852C335.531 68.348 336.791 68.096 338.247 68.096C339.451 68.096 340.543 68.25 341.523 68.558C342.531 68.866 343.343 69.244 343.959 69.692L343.539 74.564C342.923 74.06 342.209 73.668 341.397 73.388C340.585 73.08 339.801 72.926 339.045 72.926C338.177 72.926 337.463 73.178 336.903 73.682C336.343 74.158 336.063 74.942 336.063 76.034C336.063 76.734 336.189 77.308 336.441 77.756C336.693 78.176 337.015 78.512 337.407 78.764C337.827 78.988 338.233 79.156 338.625 79.268H343.749V83.468H338.037V98H332.871ZM357.386 98.546C355.622 98.546 354.04 98.294 352.64 97.79C351.268 97.286 350.106 96.558 349.154 95.606C348.202 94.626 347.474 93.45 346.97 92.078C346.466 90.706 346.214 89.152 346.214 87.416C346.214 85.68 346.452 84.084 346.928 82.628C347.432 81.172 348.146 79.912 349.07 78.848C349.994 77.784 351.114 76.958 352.43 76.37C353.774 75.782 355.3 75.488 357.008 75.488C358.604 75.488 360.032 75.754 361.292 76.286C362.552 76.818 363.616 77.616 364.484 78.68C365.352 79.716 365.996 81.018 366.416 82.586C366.836 84.126 366.976 85.918 366.836 87.962L349.658 88.088V85.022L363.77 84.896L361.922 86.618C362.09 85.022 361.964 83.72 361.544 82.712C361.124 81.676 360.522 80.92 359.738 80.444C358.954 79.94 358.058 79.688 357.05 79.688C355.902 79.688 354.894 79.996 354.026 80.612C353.158 81.2 352.486 82.068 352.01 83.216C351.562 84.336 351.338 85.708 351.338 87.332C351.338 89.768 351.87 91.588 352.934 92.792C354.026 93.996 355.51 94.598 357.386 94.598C358.226 94.598 358.926 94.5 359.486 94.304C360.074 94.08 360.564 93.8 360.956 93.464C361.348 93.1 361.656 92.694 361.88 92.246C362.132 91.798 362.328 91.322 362.468 90.818L367.088 91.868C366.864 92.904 366.5 93.828 365.996 94.64C365.492 95.452 364.834 96.152 364.022 96.74C363.238 97.328 362.3 97.776 361.208 98.084C360.116 98.392 358.842 98.546 357.386 98.546ZM371.673 98V86.996V76.034H376.125L376.041 83.594H376.797C377.049 81.802 377.441 80.318 377.973 79.142C378.505 77.938 379.247 77.042 380.199 76.454C381.151 75.838 382.327 75.53 383.727 75.53C384.007 75.53 384.301 75.544 384.609 75.572C384.945 75.6 385.309 75.67 385.701 75.782L385.491 81.368C385.043 81.2 384.581 81.088 384.105 81.032C383.657 80.948 383.237 80.906 382.845 80.906C381.753 80.906 380.801 81.186 379.989 81.746C379.205 82.306 378.561 83.104 378.057 84.14C377.581 85.148 377.217 86.352 376.965 87.752V98H371.673Z" fill="black"/>
</svg>
