<svg width="4914" height="3592" viewBox="0 0 4914 3592" fill="none" xmlns="http://www.w3.org/2000/svg">
<path d="M2481.44 3592C1330.84 3592 398.093 3565.3 398.093 3532.35C398.093 3499.41 1330.84 3472.7 2481.44 3472.7C3632.04 3472.7 4564.78 3499.41 4564.78 3532.35C4564.78 3565.3 3632.04 3592 2481.44 3592Z" fill="#F0F0F0"/>
<path d="M1280.67 3075.79C1260.89 3134.71 1256.71 3197.74 1268.51 3258.76C1280.32 3319.77 1307.72 3376.7 1348.04 3423.98C1388.37 3471.27 1440.24 3507.32 1498.63 3528.62C1557.02 3549.92 1619.92 3555.74 1681.22 3545.52C1709.18 3540.73 1736.48 3532.72 1762.59 3521.64C1770.55 3518.2 1778.41 3514.57 1786.08 3510.64C1820.02 3493.25 1850.97 3470.56 1877.76 3443.42C1883.07 3438.11 1888.18 3432.61 1893.09 3427.01C1924.1 3391.38 1947.81 3350.01 1962.87 3305.25C1964.24 3301.02 1965.62 3296.8 1966.8 3292.47C1983.12 3237.04 1985.87 3178.49 1974.81 3121.77C1963.74 3065.05 1939.19 3011.82 1903.22 2966.58C1867.26 2921.35 1820.94 2885.43 1768.17 2861.87C1715.4 2838.3 1657.74 2827.78 1600.05 2831.19C1591.3 2831.78 1582.75 2832.57 1574.11 2833.75C1536.85 2838.75 1500.61 2849.56 1466.7 2865.78C1459.33 2869.32 1451.96 2873.15 1444.78 2877.18C1371.39 2918.53 1314.89 2984.38 1285.19 3063.21C1283.62 3067.34 1282.14 3071.56 1280.67 3075.79Z" fill="#407BFF"/>
<path d="M1280.67 3075.79C1260.89 3134.71 1256.71 3197.74 1268.51 3258.76C1280.32 3319.77 1307.72 3376.7 1348.04 3423.98C1388.37 3471.27 1440.24 3507.32 1498.63 3528.62C1557.02 3549.92 1619.92 3555.74 1681.22 3545.52C1709.18 3540.73 1736.48 3532.72 1762.59 3521.64C1770.55 3518.2 1778.41 3514.57 1786.08 3510.64C1820.02 3493.25 1850.97 3470.56 1877.76 3443.42C1883.07 3438.11 1888.18 3432.61 1893.09 3427.01C1924.1 3391.38 1947.81 3350.01 1962.87 3305.25C1964.24 3301.02 1965.62 3296.8 1966.8 3292.47C1983.12 3237.04 1985.87 3178.49 1974.81 3121.77C1963.74 3065.05 1939.19 3011.82 1903.22 2966.58C1867.26 2921.35 1820.94 2885.43 1768.17 2861.87C1715.4 2838.3 1657.74 2827.78 1600.05 2831.19C1591.3 2831.78 1582.75 2832.57 1574.11 2833.75C1536.85 2838.75 1500.61 2849.56 1466.7 2865.78C1459.33 2869.32 1451.96 2873.15 1444.78 2877.18C1371.39 2918.53 1314.89 2984.38 1285.19 3063.21C1283.62 3067.34 1282.14 3071.56 1280.67 3075.79Z" fill="#407BFF"/>
<path opacity="0.6" d="M1345.13 3111.35C1347.78 3104.57 1350.63 3097.99 1353.78 3091.7C1381.63 3033.55 1428.22 2986.45 1486.05 2957.95C1493.42 2954.32 1500.89 2950.98 1508.55 2948.13C1544.21 2934.15 1582.3 2927.47 1620.58 2928.47C1630.14 2928.67 1639.69 2929.36 1649.18 2930.54C1668.17 2932.93 1686.88 2937.24 1705 2943.41C1775.1 2967.06 1833.4 3016.79 1867.83 3082.26C1902.27 3147.74 1910.18 3223.96 1889.94 3295.12L1894.37 3282.74C1906.84 3246.83 1912.08 3208.81 1909.77 3170.87C1907.47 3132.93 1897.67 3095.82 1880.93 3061.69C1864.2 3027.56 1840.86 2997.08 1812.28 2972.03C1783.7 2946.97 1750.43 2927.83 1714.41 2915.7C1678.38 2903.58 1640.31 2898.72 1602.39 2901.4C1564.47 2904.07 1527.46 2914.24 1493.5 2931.31C1459.54 2948.38 1429.29 2972.01 1404.52 3000.84C1379.74 3029.67 1360.93 3063.12 1349.16 3099.27C1347.68 3103 1346.31 3107.23 1345.13 3111.35Z" fill="black"/>
<g opacity="0.3">
<path d="M1530.09 3463.07C1533.33 3464.25 1536.58 3465.23 1539.92 3466.21L1549.74 3468.96L1552.2 3469.65L1563.01 3472.11H1564.58C1576.26 3474.52 1588.07 3476.16 1599.96 3477.02C1603.99 3477.02 1607.92 3477.61 1611.95 3477.61C1619.91 3477.61 1627.77 3477.61 1635.73 3477.61L1643.4 3477.12H1647.52L1653.62 3476.43C1656.76 3476.43 1660.04 3476.04 1663.44 3475.25C1667.47 3474.66 1671.4 3474.07 1675.43 3473.19C1679.46 3472.31 1683.39 3471.62 1687.32 3470.73C1691.25 3469.85 1693.81 3469.16 1697.15 3468.18L1703.44 3466.41L1708.45 3464.94L1714.25 3462.97L1723.58 3459.63C1726.34 3458.65 1728.99 3457.57 1731.64 3456.39L1733.41 3455.7C1737.15 3454.03 1740.98 3452.46 1744.71 3450.69C1748.45 3448.92 1751.59 3447.35 1755.03 3445.48H1755.62L1761.81 3442.14L1767.81 3438.6L1773.6 3435.16L1779.8 3431.23L1785.59 3427.3L1791.29 3423.27C1795.22 3420.42 1799.06 3417.47 1802.89 3414.33L1807.51 3410.59C1811.24 3407.45 1814.88 3404.17 1818.42 3400.76L1823.53 3395.95C1828.83 3390.74 1833.94 3385.24 1838.86 3379.64L1842.79 3375.02C1845.64 3371.58 1848.39 3368.24 1851.14 3364.6V3364.11C1853.79 3360.57 1856.45 3356.94 1858.9 3353.2L1862.44 3348.09L1864.11 3345.44C1865.29 3343.57 1866.47 3341.7 1867.55 3339.84L1868.14 3338.95C1869.42 3336.89 1870.7 3334.63 1871.88 3332.47C1873.05 3330.3 1874.63 3327.65 1875.81 3325.19C1876.99 3322.74 1878.46 3320.38 1879.64 3317.92C1880.82 3315.47 1881.51 3313.99 1882.49 3311.93C1883.47 3309.86 1883.67 3309.37 1884.16 3308.1C1885.05 3306.34 1885.83 3304.53 1886.52 3302.69L1889.76 3294.93C1910 3223.77 1902.08 3147.55 1867.65 3082.07C1833.22 3016.59 1774.91 2966.87 1704.82 2943.22C1686.69 2937.05 1667.99 2932.73 1649 2930.34C1639.51 2929.17 1629.96 2928.48 1620.4 2928.28C1582.12 2927.28 1544.03 2933.96 1508.37 2947.93C1500.71 2950.88 1493.24 2954.22 1485.87 2957.76C1428.03 2986.26 1381.45 3033.36 1353.59 3091.51C1350.45 3097.99 1347.6 3104.58 1344.95 3111.16C1324.63 3182.37 1332.54 3258.67 1367.02 3324.21C1401.5 3389.74 1459.9 3439.47 1530.09 3463.07Z" fill="black"/>
</g>
<g opacity="0.6">
<path d="M1699.94 3332.37L1715.17 3377.67L1657.68 3397.32L1643.14 3354.09C1605.99 3365.03 1566.83 3367.35 1528.65 3360.87L1536.02 3280.19C1570.3 3287.08 1605.78 3285.16 1639.11 3274.58C1666.43 3265.45 1674.29 3256.4 1671.05 3246.58C1658.96 3210.71 1510.77 3292.76 1475 3186.34C1459.47 3140.25 1479.81 3090.23 1543.79 3058.58L1528.85 3014.07L1586.34 2994.41L1601.08 3038.14C1630.74 3030.55 1661.64 3029.11 1691.88 3033.92L1686.38 3113.42C1657.45 3108.37 1627.74 3110.29 1599.7 3119.02C1571.5 3128.85 1565.31 3139.66 1568.55 3149.39C1580.15 3183.68 1728.44 3102.02 1763.81 3207.27C1778.46 3251.39 1759.49 3300.53 1699.94 3332.37Z" fill="black"/>
</g>
<path d="M1693.24 3317.93L1708.47 3363.23L1650.88 3382.89L1636.34 3339.65C1599.18 3350.57 1560.03 3352.86 1521.85 3346.33L1529.32 3265.75C1563.58 3272.56 1598.99 3270.63 1632.31 3260.15C1659.73 3250.91 1667.59 3241.87 1664.25 3232.14C1652.16 3196.17 1503.97 3278.33 1468.2 3171.8C1452.67 3125.71 1473.11 3075.69 1536.99 3044.05L1521.85 2999.04L1579.44 2979.39L1594.08 3023.02C1623.75 3015.48 1654.64 3014.04 1684.88 3018.79L1679.38 3098.39C1650.46 3093.36 1620.76 3095.25 1592.71 3103.9C1564.5 3113.72 1558.31 3124.53 1561.65 3134.36C1573.15 3168.66 1721.44 3086.9 1756.82 3192.24C1771.66 3236.56 1752.79 3285.6 1693.24 3317.93Z" fill="#407BFF"/>
<path d="M3237.63 1588.95C3249.88 1641.45 3273.76 1690.53 3307.51 1732.58C3341.26 1774.62 3384.01 1808.55 3432.62 1831.86C3481.23 1855.18 3534.46 1867.28 3588.37 1867.29C3642.29 1867.29 3695.51 1855.18 3744.12 1831.87C3773.29 1817.91 3800.4 1800.03 3824.7 1778.71C3846.03 1760 3865.09 1738.86 3881.5 1715.71C3886.52 1708.64 3891.33 1701.37 3895.66 1694C3915.41 1661.4 3929.87 1625.87 3938.5 1588.75C3940.17 1581.38 3941.65 1574.11 3942.92 1566.64C3950.67 1520.05 3949.14 1472.39 3938.4 1426.4C3937.42 1422.08 3936.34 1417.76 3935.06 1413.53C3919.92 1357.74 3891.56 1306.42 3852.38 1263.91C3813.21 1221.4 3764.37 1188.95 3710 1169.31C3655.64 1149.66 3597.34 1143.4 3540.04 1151.05C3482.74 1158.7 3428.12 1180.04 3380.81 1213.26C3373.74 1218.27 3366.86 1223.08 3360.18 1228.98C3331.04 1252.76 3305.84 1280.98 3285.49 1312.61C3281.07 1319.49 3276.75 1326.56 3272.81 1333.74C3243.56 1386.7 3228.12 1446.18 3227.9 1506.69C3227.94 1529.78 3230.15 1552.81 3234.49 1575.48C3235.77 1580.2 3236.65 1584.62 3237.63 1588.95Z" fill="#407BFF"/>
<path d="M3237.63 1588.95C3249.88 1641.45 3273.76 1690.53 3307.51 1732.58C3341.26 1774.62 3384.01 1808.55 3432.62 1831.86C3481.23 1855.18 3534.46 1867.28 3588.37 1867.29C3642.29 1867.29 3695.51 1855.18 3744.12 1831.87C3773.29 1817.91 3800.4 1800.03 3824.7 1778.71C3846.03 1760 3865.09 1738.86 3881.5 1715.71C3886.52 1708.64 3891.33 1701.37 3895.66 1694C3915.41 1661.4 3929.87 1625.87 3938.5 1588.75C3940.17 1581.38 3941.65 1574.11 3942.92 1566.64C3950.67 1520.05 3949.14 1472.39 3938.4 1426.4C3937.42 1422.08 3936.34 1417.76 3935.06 1413.53C3919.92 1357.74 3891.56 1306.42 3852.38 1263.91C3813.21 1221.4 3764.37 1188.95 3710 1169.31C3655.64 1149.66 3597.34 1143.4 3540.04 1151.05C3482.74 1158.7 3428.12 1180.04 3380.81 1213.26C3373.74 1218.27 3366.86 1223.08 3360.18 1228.98C3331.04 1252.76 3305.84 1280.98 3285.49 1312.61C3281.07 1319.49 3276.75 1326.56 3272.81 1333.74C3243.56 1386.7 3228.12 1446.18 3227.9 1506.69C3227.94 1529.78 3230.15 1552.81 3234.49 1575.48C3235.77 1580.2 3236.65 1584.62 3237.63 1588.95Z" fill="#407BFF"/>
<path opacity="0.6" d="M3311.24 1585.41C3309.96 1578.33 3308.88 1571.16 3308.19 1563.98C3301.53 1499.85 3316.62 1435.33 3351.04 1380.81C3355.36 1373.8 3359.98 1367.02 3364.89 1360.46C3387.89 1329.82 3416.8 1304.09 3449.9 1284.8C3458.15 1279.98 3466.65 1275.58 3475.35 1271.63C3513.12 1254.4 3554.17 1245.55 3595.68 1245.69C3637.19 1245.84 3678.18 1254.97 3715.83 1272.46C3753.48 1289.94 3786.89 1315.38 3813.78 1347.01C3840.67 1378.64 3860.38 1415.71 3871.58 1455.69C3870.69 1451.36 3869.81 1447.04 3868.83 1442.72C3849.73 1370.42 3803.23 1308.41 3739.18 1269.82C3675.14 1231.23 3598.58 1219.09 3525.74 1235.99C3452.9 1252.88 3389.5 1297.47 3348.98 1360.32C3308.46 1423.16 3294.01 1499.31 3308.68 1572.63C3308.98 1576.95 3310.16 1581.28 3311.24 1585.41Z" fill="black"/>
<g opacity="0.3">
<path d="M3653.21 1787.84C3656.55 1787.15 3659.79 1786.26 3663.03 1785.38L3672.86 1782.53L3675.32 1781.74L3685.83 1778.21L3687.31 1777.62C3698.5 1773.52 3709.43 1768.73 3720.03 1763.27C3723.57 1761.4 3727.11 1759.53 3730.55 1757.47C3737.52 1753.54 3744.21 1749.41 3750.2 1744.89L3756.39 1740.47L3759.83 1737.92L3764.65 1734.18C3767.1 1732.31 3769.56 1730.35 3772.02 1728.19C3774.47 1726.02 3778.21 1722.98 3781.16 1720.13C3784.1 1717.28 3787.15 1714.62 3790 1711.78C3792.85 1708.93 3794.62 1707.06 3796.88 1704.6C3799.14 1702.14 3799.93 1701.46 3801.3 1699.79C3802.68 1698.12 3803.66 1697.13 3804.84 1695.86L3808.77 1691.14L3814.96 1683.37C3816.73 1681.11 3818.5 1678.85 3820.07 1676.5L3821.25 1674.92C3823.61 1671.58 3825.97 1668.14 3828.23 1665.1C3830.49 1662.05 3832.36 1658.61 3834.32 1655.27V1654.78C3835.5 1652.81 3836.68 1650.75 3837.76 1648.69C3838.84 1646.62 3840.02 1644.56 3841.1 1642.49L3844.25 1636.5C3845.23 1634.34 3846.41 1632.18 3847.39 1630.01L3850.24 1623.53C3851.22 1621.46 3852.11 1619.3 3852.99 1617.14C3854.86 1612.72 3856.53 1608.2 3858.2 1603.48L3860.17 1597.88C3861.74 1593.26 3863.11 1588.54 3864.29 1583.92C3864.98 1581.57 3865.57 1579.31 3866.16 1577.05C3867.93 1569.77 3869.4 1562.5 3870.68 1555.13L3871.57 1549.23C3872.25 1544.81 3872.74 1540.39 3873.24 1535.97V1535.28C3873.24 1530.86 3874.02 1526.34 3874.22 1521.92V1515.72V1511.99C3874.22 1509.83 3874.22 1507.57 3874.22 1505.41V1504.42C3874.22 1501.87 3874.22 1499.41 3874.22 1496.86C3874.22 1494.3 3874.22 1491.35 3874.22 1488.6C3874.22 1485.85 3874.22 1483.1 3873.63 1480.45C3873.04 1477.79 3873.63 1476.02 3872.84 1473.86C3872.06 1471.7 3872.84 1471.01 3872.84 1469.64C3872.84 1468.26 3872.35 1465.8 3872.06 1463.84C3871.76 1461.87 3871.17 1458.33 3870.68 1455.58C3859.49 1415.61 3839.77 1378.53 3812.88 1346.9C3786 1315.27 3752.58 1289.84 3714.93 1272.35C3677.28 1254.86 3636.3 1245.73 3594.78 1245.59C3553.27 1245.44 3512.22 1254.29 3474.45 1271.52C3465.75 1275.48 3457.26 1279.87 3449 1284.69C3415.9 1303.98 3386.99 1329.71 3364 1360.36C3359.08 1366.91 3354.46 1373.69 3350.14 1380.7C3315.86 1435.28 3300.91 1499.79 3307.69 1563.88C3308.37 1571.05 3309.46 1578.22 3310.73 1585.3C3330.8 1656.63 3377.6 1717.48 3441.38 1755.21C3505.16 1792.93 3581.03 1804.61 3653.21 1787.84Z" fill="black"/>
</g>
<g opacity="0.6">
<path d="M3595.64 1675.72L3584.83 1722.2L3526.06 1708.54L3535.89 1664.12C3498.62 1654.08 3464.13 1635.66 3435.06 1610.27L3483.61 1545.51C3509.2 1569.3 3540.41 1586.21 3574.31 1594.65C3602.42 1601.23 3613.62 1597.69 3616.18 1587.57C3624.73 1550.72 3455.5 1542.86 3480.86 1433.38C3491.86 1386.02 3535.5 1354.18 3606.45 1360.47L3617.06 1314.67L3676.02 1328.43L3665.61 1373.34C3694.83 1382.45 3721.88 1397.43 3745.11 1417.36L3698.72 1482.13C3676.69 1462.72 3650.4 1448.78 3621.97 1441.44C3593.08 1434.66 3581.88 1440.95 3579.52 1451.27C3571.36 1486.55 3740.49 1494.8 3715.43 1603C3705.11 1647.61 3663.64 1679.06 3595.64 1675.72Z" fill="black"/>
</g>
<path d="M3597.49 1659.41L3586.68 1705.99L3527.72 1692.23L3537.55 1647.81C3500.2 1637.64 3465.68 1619.05 3436.62 1593.47L3485.17 1528.71C3510.76 1552.5 3541.97 1569.41 3575.87 1577.84C3603.98 1584.33 3615.18 1580.79 3617.74 1570.77C3626.29 1533.82 3457.07 1525.95 3482.42 1416.48C3493.43 1369.11 3537.06 1337.27 3608.01 1343.56L3618.62 1297.87L3677.59 1311.53L3667.17 1356.44C3696.39 1365.55 3723.44 1380.53 3746.67 1400.46L3700.29 1465.32C3678.29 1445.84 3651.99 1431.86 3623.54 1424.54C3594.64 1417.86 3583.44 1424.54 3581.08 1434.37C3572.93 1469.55 3742.05 1477.8 3716.99 1586C3706.97 1631.69 3665.1 1663.53 3597.49 1659.41Z" fill="#407BFF"/>
<path d="M785.21 2727.42L679.274 2833.36L1371.79 3525.88H1190.97L588.865 2923.77L479.391 3033.14L435.365 2683.4L785.21 2727.42Z" fill="#407BFF"/>
<g opacity="0.3">
<path d="M785.21 2727.42L679.274 2833.36L1371.79 3525.88H1190.97L588.865 2923.77L479.391 3033.14L435.365 2683.4L785.21 2727.42Z" fill="white"/>
</g>
<path d="M3443.13 2416.69L3337.2 2522.72L4340.45 3525.87H4159.73L3246.79 2613.13L3137.31 2722.51L3093.29 2372.66L3443.13 2416.69Z" fill="#407BFF"/>
<g opacity="0.3">
<path d="M3443.13 2416.69L3337.2 2522.72L4340.45 3525.87H4159.73L3246.79 2613.13L3137.31 2722.51L3093.29 2372.66L3443.13 2416.69Z" fill="white"/>
</g>
<path d="M3018.88 545.708L2990.28 537.552L3008.56 474.069L3041.58 483.896C3051.04 473.192 3062.89 464.875 3076.17 459.623V426.211H3142.21V459.623C3152.57 463.73 3162.09 469.691 3170.31 477.214L3199.8 463.063L3228.69 522.025L3199.7 536.176C3199.7 538.535 3199.7 540.991 3199.7 543.35C3199.69 558.798 3195.74 573.988 3188.2 587.474L3209.92 614.695L3158.33 655.87L3137.2 629.435C3128.15 632.367 3118.7 633.859 3109.19 633.857C3102.24 633.845 3095.31 633.021 3088.55 631.401L3069.49 658.229L3015.64 620.001L3034.21 593.861C3024.59 579.613 3019.26 562.897 3018.88 545.708ZM3168.64 543.35C3168.64 531.709 3165.2 520.329 3158.74 510.644C3152.28 500.958 3143.1 493.401 3132.36 488.924C3121.61 484.447 3109.78 483.251 3098.36 485.487C3086.93 487.722 3076.43 493.289 3068.16 501.486C3059.9 509.683 3054.24 520.144 3051.91 531.549C3049.58 542.954 3050.68 554.793 3055.07 565.575C3059.45 576.358 3066.94 585.6 3076.57 592.138C3086.2 598.675 3097.55 602.215 3109.19 602.312C3124.87 602.287 3139.9 596.083 3151.03 585.044C3162.16 574.006 3168.49 559.025 3168.64 543.35Z" fill="#407BFF"/>
<path opacity="0.6" d="M3018.88 545.708L2990.28 537.552L3008.56 474.069L3041.58 483.896C3051.04 473.192 3062.89 464.875 3076.17 459.623V426.211H3142.21V459.623C3152.57 463.73 3162.09 469.691 3170.31 477.214L3199.8 463.063L3228.69 522.025L3199.7 536.176C3199.7 538.535 3199.7 540.991 3199.7 543.35C3199.69 558.798 3195.74 573.988 3188.2 587.474L3209.92 614.695L3158.33 655.87L3137.2 629.435C3128.15 632.367 3118.7 633.859 3109.19 633.857C3102.24 633.845 3095.31 633.021 3088.55 631.401L3069.49 658.229L3015.64 620.001L3034.21 593.861C3024.59 579.613 3019.26 562.897 3018.88 545.708ZM3168.64 543.35C3168.64 531.709 3165.2 520.329 3158.74 510.644C3152.28 500.958 3143.1 493.401 3132.36 488.924C3121.61 484.447 3109.78 483.251 3098.36 485.487C3086.93 487.722 3076.43 493.289 3068.16 501.486C3059.9 509.683 3054.24 520.144 3051.91 531.549C3049.58 542.954 3050.68 554.793 3055.07 565.575C3059.45 576.358 3066.94 585.6 3076.57 592.138C3086.2 598.675 3097.55 602.215 3109.19 602.312C3124.87 602.287 3139.9 596.083 3151.03 585.044C3162.16 574.006 3168.49 559.025 3168.64 543.35Z" fill="white"/>
<path d="M1596.11 1789.53L1567.61 1781.37L1585.79 1718.38L1618.81 1728.2C1628.26 1717.5 1640.12 1709.18 1653.4 1703.93V1669.24H1719.73V1702.65C1730.1 1706.74 1739.63 1712.7 1747.84 1720.24L1777.32 1706.09L1806.21 1765.06L1776.73 1779.21C1776.73 1781.57 1776.73 1783.92 1776.73 1786.38C1776.77 1801.84 1772.81 1817.04 1765.23 1830.5L1787.05 1857.73L1735.36 1898.9L1714.23 1872.47C1705.18 1875.4 1695.73 1876.89 1686.22 1876.89C1679.27 1876.87 1672.35 1876.05 1665.59 1874.43L1646.52 1901.26L1592.67 1863.03L1611.63 1837.58C1601.96 1823.38 1596.57 1806.7 1596.11 1789.53ZM1745.87 1787.17C1745.78 1775.55 1742.25 1764.22 1735.73 1754.6C1729.22 1744.98 1720 1737.49 1709.25 1733.09C1698.49 1728.69 1686.68 1727.56 1675.29 1729.86C1663.9 1732.15 1653.44 1737.75 1645.22 1745.97C1637 1754.18 1631.4 1764.65 1629.11 1776.04C1626.82 1787.43 1627.94 1799.24 1632.34 1810C1636.75 1820.75 1644.23 1829.96 1653.85 1836.48C1663.47 1843 1674.8 1846.52 1686.42 1846.62C1694.24 1846.69 1702.01 1845.19 1709.25 1842.23C1716.49 1839.26 1723.07 1834.89 1728.61 1829.35C1734.14 1823.82 1738.52 1817.24 1741.48 1810C1744.45 1802.75 1745.94 1794.99 1745.87 1787.17Z" fill="#407BFF"/>
<path opacity="0.6" d="M1596.11 1789.53L1567.61 1781.37L1585.79 1718.38L1618.81 1728.2C1628.26 1717.5 1640.12 1709.18 1653.4 1703.93V1669.24H1719.73V1702.65C1730.1 1706.74 1739.63 1712.7 1747.84 1720.24L1777.32 1706.09L1806.21 1765.06L1776.73 1779.21C1776.73 1781.57 1776.73 1783.92 1776.73 1786.38C1776.77 1801.84 1772.81 1817.04 1765.23 1830.5L1787.05 1857.73L1735.36 1898.9L1714.23 1872.47C1705.18 1875.4 1695.73 1876.89 1686.22 1876.89C1679.27 1876.87 1672.35 1876.05 1665.59 1874.43L1646.52 1901.26L1592.67 1863.03L1611.63 1837.58C1601.96 1823.38 1596.57 1806.7 1596.11 1789.53ZM1745.87 1787.17C1745.78 1775.55 1742.25 1764.22 1735.73 1754.6C1729.22 1744.98 1720 1737.49 1709.25 1733.09C1698.49 1728.69 1686.68 1727.56 1675.29 1729.86C1663.9 1732.15 1653.44 1737.75 1645.22 1745.97C1637 1754.18 1631.4 1764.65 1629.11 1776.04C1626.82 1787.43 1627.94 1799.24 1632.34 1810C1636.75 1820.75 1644.23 1829.96 1653.85 1836.48C1663.47 1843 1674.8 1846.52 1686.42 1846.62C1694.24 1846.69 1702.01 1845.19 1709.25 1842.23C1716.49 1839.26 1723.07 1834.89 1728.61 1829.35C1734.14 1823.82 1738.52 1817.24 1741.48 1810C1744.45 1802.75 1745.94 1794.99 1745.87 1787.17Z" fill="white"/>
<path d="M899.188 1798.77L943.213 2148.51L1046.89 2044.84L2071.56 3069.41H3125.81L3582.38 3525.88H3763L3178.78 2941.66H2124.43L1137.3 1954.43L1248.93 1842.79L899.188 1798.77Z" fill="#407BFF"/>
<path d="M2334.34 2725.95V2872.08L2275.37 2876.8L2246.48 2740.01L2334.34 2725.95Z" fill="#FF8B7B"/>
<path d="M2292.47 2863.03C2292.47 2863.03 2273.9 2827.36 2262.99 2831.19C2252.08 2835.03 2247.56 2878.27 2247.56 2878.27C2247.56 2878.27 2188.6 2897.92 2171.5 2899.2C2154.4 2900.48 2141.43 2909.61 2139.26 2942.14H2342.39C2342.39 2942.14 2341.01 2868.83 2340.62 2856.25C2340.23 2843.67 2322.34 2859.4 2322.34 2859.4L2292.47 2863.03Z" fill="#263238"/>
<path d="M2340.13 2884.06C2336.48 2886.06 2333.27 2888.79 2330.71 2892.08C2328.16 2895.37 2326.3 2899.15 2325.26 2903.18C2324.22 2907.21 2324.01 2911.42 2324.66 2915.53C2325.31 2919.65 2326.8 2923.59 2329.03 2927.11C2329.16 2927.28 2329.25 2927.48 2329.3 2927.69C2329.35 2927.9 2329.35 2928.12 2329.31 2928.33C2329.27 2928.55 2329.19 2928.75 2329.07 2928.93C2328.95 2929.11 2328.79 2929.26 2328.61 2929.38C2328.42 2929.49 2328.22 2929.57 2328 2929.6C2327.79 2929.63 2327.57 2929.62 2327.36 2929.56C2327.15 2929.51 2326.96 2929.41 2326.79 2929.27C2326.62 2929.14 2326.48 2928.97 2326.38 2928.78C2323.91 2924.94 2322.26 2920.65 2321.52 2916.15C2320.77 2911.65 2320.95 2907.05 2322.05 2902.63C2323.14 2898.2 2325.13 2894.05 2327.88 2890.42C2330.64 2886.79 2334.1 2883.75 2338.07 2881.51C2339.74 2880.53 2341.71 2883.28 2340.04 2884.26L2340.13 2884.06Z" fill="white"/>
<path d="M2340.44 2930.45L2181.14 2932.12H2144.09C2142.03 2932.12 2141.54 2928.88 2143.6 2928.88L2303 2927.21H2340.04C2342.11 2927.21 2342.5 2930.45 2340.04 2930.45H2340.44Z" fill="white"/>
<path d="M2256.31 2891.04C2254.78 2888.68 2252.79 2886.66 2250.45 2885.11C2248.11 2883.56 2245.48 2882.5 2242.72 2882C2239.95 2881.5 2237.12 2881.58 2234.38 2882.22C2231.65 2882.86 2229.08 2884.05 2226.83 2885.73C2225.35 2887.01 2223.39 2884.16 2224.86 2882.98C2235.28 2874.43 2249.53 2878.06 2259.06 2889.37C2260.44 2891.04 2257.88 2892.71 2256.41 2891.04H2256.31Z" fill="white"/>
<path d="M2239.5 2896.25C2237.95 2893.91 2235.95 2891.92 2233.6 2890.38C2231.26 2888.84 2228.63 2887.8 2225.87 2887.31C2223.12 2886.83 2220.29 2886.91 2217.56 2887.55C2214.83 2888.19 2212.27 2889.38 2210.01 2891.04C2208.44 2892.32 2206.48 2889.47 2208.05 2888.29C2218.47 2879.64 2232.71 2883.38 2242.25 2894.68C2243.62 2896.35 2241.07 2897.92 2239.59 2896.25H2239.5Z" fill="white"/>
<path d="M2222.11 2901.56C2220.57 2899.22 2218.56 2897.22 2216.22 2895.69C2213.88 2894.15 2211.25 2893.11 2208.49 2892.62C2205.73 2892.13 2202.91 2892.21 2200.18 2892.85C2197.45 2893.49 2194.89 2894.68 2192.63 2896.35C2191.06 2897.53 2189.1 2894.77 2190.67 2893.5C2201.08 2884.95 2215.33 2888.68 2224.77 2899.98C2226.24 2901.65 2223.69 2903.23 2222.21 2901.56H2222.11Z" fill="white"/>
<path d="M2369.81 1277.73C2368.14 1303.77 2371.68 1383.86 2368.14 1426.8C2361.56 1508.76 2352.62 1614.99 2345.54 1721.62C2337.28 1844.85 2331.39 1968.18 2334.34 2053.87C2341.9 2273.7 2340.23 2772.04 2340.23 2772.04H2244.81C2244.81 2772.04 2132.78 2276.75 2111.85 2053.87C2094.36 1869.02 2103.6 1392.9 2106.54 1277.53L2369.81 1277.73Z" fill="#263238"/>
<path opacity="0.2" d="M2368.33 1426.8C2361.74 1508.76 2352.8 1614.99 2345.73 1721.62C2298.75 1582.66 2342.38 1372.66 2342.38 1372.66L2368.33 1426.8Z" fill="black"/>
<path d="M2348.48 2775.18H2236.55L2228.39 2739.51L2351.43 2738.03L2348.48 2775.18Z" fill="#407BFF"/>
<path d="M2860.97 2698.72L2883.28 2843.08L2825.69 2856.74L2776.26 2725.94L2860.97 2698.72Z" fill="#FF8B7B"/>
<path d="M2840.04 2840.52C2840.04 2840.52 2816.26 2808.19 2806.04 2813.6C2795.82 2819 2797.98 2862.73 2797.98 2862.73C2797.98 2862.73 2742.26 2891.43 2725.95 2895.06C2709.64 2898.7 2697.84 2910 2700.69 2942.43L2901.46 2911.38C2901.46 2911.38 2888.88 2839.15 2886.62 2826.77C2884.36 2814.38 2869.03 2832.66 2869.03 2832.66L2840.04 2840.52Z" fill="#263238"/>
<path d="M2890.85 2854.08C2887.58 2856.62 2884.87 2859.8 2882.87 2863.43C2880.87 2867.05 2879.63 2871.05 2879.22 2875.17C2878.82 2879.29 2879.26 2883.45 2880.51 2887.39C2881.77 2891.34 2883.82 2894.98 2886.53 2898.11C2887.81 2899.78 2885.55 2901.84 2884.17 2900.07C2881.15 2896.67 2878.85 2892.68 2877.42 2888.35C2876 2884.03 2875.47 2879.45 2875.87 2874.92C2876.28 2870.38 2877.61 2865.97 2879.78 2861.97C2881.95 2857.96 2884.91 2854.44 2888.5 2851.63C2889.97 2850.35 2892.33 2852.81 2890.85 2854.08Z" fill="white"/>
<path d="M2898.22 2899.88L2740.98 2925.82L2704.43 2931.82C2702.36 2931.82 2701.48 2929.07 2703.54 2928.77L2860.77 2902.73L2897.33 2896.73C2899.4 2896.73 2900.28 2899.49 2898.22 2899.88Z" fill="white"/>
<path d="M2809.09 2873.74C2807.21 2871.64 2804.92 2869.95 2802.36 2868.78C2799.8 2867.6 2797.02 2866.96 2794.21 2866.89C2791.39 2866.83 2788.59 2867.34 2785.98 2868.4C2783.37 2869.46 2781 2871.04 2779.02 2873.05C2777.74 2874.53 2775.39 2872.07 2776.66 2870.6C2779 2868.34 2781.76 2866.58 2784.79 2865.41C2787.81 2864.24 2791.04 2863.69 2794.29 2863.79C2797.53 2863.89 2800.72 2864.64 2803.67 2865.99C2806.62 2867.35 2809.26 2869.28 2811.45 2871.68C2813.12 2873.15 2810.76 2875.22 2809.09 2873.74Z" fill="white"/>
<path d="M2793.26 2881.51C2791.37 2879.41 2789.08 2877.72 2786.52 2876.54C2783.96 2875.36 2781.19 2874.72 2778.37 2874.66C2775.55 2874.59 2772.75 2875.11 2770.14 2876.17C2767.53 2877.23 2765.16 2878.81 2763.19 2880.82C2761.91 2882.29 2759.55 2879.84 2760.83 2878.36C2769.87 2868.54 2784.51 2869.81 2795.62 2879.54C2797.29 2881.02 2794.93 2882.98 2793.26 2881.51Z" fill="white"/>
<path d="M2776.94 2889.36C2775.04 2887.27 2772.74 2885.59 2770.16 2884.42C2767.59 2883.25 2764.81 2882.61 2761.98 2882.56C2759.16 2882.5 2756.35 2883.03 2753.73 2884.1C2751.12 2885.16 2748.75 2886.76 2746.77 2888.77C2745.49 2890.15 2743.13 2887.69 2744.41 2886.32C2753.45 2876.49 2768.1 2877.67 2779.2 2887.4C2780.87 2888.87 2778.51 2890.84 2776.94 2889.36Z" fill="white"/>
<path d="M2525.09 2072.93C2584.05 2289.12 2782.17 2755.91 2782.17 2755.91L2876.21 2739.6C2876.21 2739.6 2777.94 2253.55 2733.13 2038.34C2692.44 1844.06 2647.73 1397.81 2633.29 1264.95L2317.84 1293.35C2334.64 1407.14 2476.15 1893.78 2525.09 2072.93Z" fill="#263238"/>
<path d="M2884.95 2741.47L2774.59 2760.73L2760.44 2726.93L2883.27 2704.52L2884.95 2741.47Z" fill="#407BFF"/>
<path d="M2651.65 1264.96C2652.92 1278.81 2624.62 1309.97 2610.76 1310.55L2121.08 1319.1C2106.34 1319.79 2089.04 1309.28 2089.54 1294.93C2094.55 1121.29 2135.04 523.994 2148.5 486.356C2165.3 440.071 2258.46 423.365 2299.15 419.729C2363.41 415.393 2427.89 415.393 2492.15 419.729C2523.5 421.203 2552.1 423.954 2575.88 426.903C2584.43 427.955 2592.68 430.722 2600.14 435.038C2607.6 439.353 2614.11 445.129 2619.28 452.019C2624.46 458.909 2628.19 466.771 2630.25 475.137C2632.32 483.502 2632.68 492.198 2631.3 500.704C2620.74 567.163 2613.85 634.155 2610.67 701.373C2610.67 704.714 2610.67 707.859 2610.67 711.2C2609.59 733.803 2608.5 756.11 2608.41 778.221C2608.41 782.545 2608.41 787.066 2608.41 791.389C2610.18 1015.74 2639.36 1125.9 2651.65 1264.96Z" fill="white"/>
<path d="M2456.78 1321.34C2522.22 1325.37 2695.48 1321.34 2695.48 1294.03C2695.48 1248.43 2633.17 933.076 2627.28 869.986C2626.39 860.159 2625.51 847.285 2624.53 831.66C2622.85 802.179 2621.18 764.934 2619.61 724.447C2614.8 598.267 2610.87 444.964 2610.87 444.964C2610.87 444.964 2607.03 410.275 2454.71 417.645C2454.71 417.645 2416.78 602.787 2415.4 765.721C2414.03 928.654 2434.47 1319.97 2456.78 1321.34Z" fill="#407BFF"/>
<path d="M2299.55 419.727C2299.55 419.727 2232.44 597.302 2239.81 866.27C2247.18 1135.24 2250.52 1331.09 2250.52 1331.09C2250.52 1331.09 2089.75 1340.92 2075.69 1317.04C2068.13 1303.97 2086.7 1069.4 2097.31 931.915C2109.4 775.369 2133.67 518.292 2142.81 487.435C2158.34 434.074 2299.55 419.727 2299.55 419.727Z" fill="#407BFF"/>
<path d="M1502.77 375.696C1549.94 417.167 1598.09 456.966 1647.91 495.292C1672.68 514.946 1698.03 533.224 1723.88 551.798C1736.85 561.035 1750.02 569.978 1763.67 579.019C1777.33 588.06 1791.09 596.806 1808.39 605.748C1819.02 611.305 1830.27 615.593 1841.9 618.524C1852.25 620.985 1862.76 622.726 1873.35 623.732C1891.44 625.484 1909.62 626.042 1927.79 625.403C1961.03 623.941 1994.16 620.661 2027.04 615.576C2054.85 611.546 2082.07 606.633 2109.1 601.032L2127.87 597.002C2157.35 590.615 2186.04 583.244 2215.33 574.99L2186.44 447.237C2156.42 457.921 2125.6 466.17 2094.26 471.904C2064.78 478.488 2035.3 484.679 2006.31 490.084C1977.32 495.489 1948.23 499.911 1920.71 502.761C1907.88 504.116 1894.99 504.739 1882.09 504.628C1877.19 504.534 1872.31 504.173 1867.45 503.547C1864.05 503.134 1860.74 502.206 1857.62 500.795C1846.71 496.471 1833.35 489.789 1820.48 483.106C1807.6 476.424 1794.24 468.857 1781.17 461.585C1754.54 447.041 1728 431.416 1701.27 416.184C1648.01 385.229 1594.06 354.175 1540.11 323.711L1502.77 375.696Z" fill="#407BFF"/>
<path opacity="0.2" d="M2109.1 601.434L2127.87 597.405L2137.7 527.633L2109.1 601.434Z" fill="black"/>
<path d="M1426.71 254.133C1426.71 254.133 1417.96 283.024 1424.45 298.355C1430.93 313.685 1461.59 321.35 1461.59 321.35C1461.59 321.35 1444.59 273.787 1426.71 254.133Z" fill="#FF8B7B"/>
<path opacity="0.2" d="M1426.71 254.133C1426.71 254.133 1417.96 283.024 1424.45 298.355C1430.93 313.685 1461.59 321.35 1461.59 321.35C1461.59 321.35 1444.59 273.787 1426.71 254.133Z" fill="black"/>
<path d="M1429.95 281.244C1441.16 291.614 1450.44 303.891 1457.36 317.506C1442.82 322.321 1419.24 310.529 1413.93 316.425C1408.62 322.321 1423.76 332.345 1447.44 344.138C1459.92 350.132 1464.24 364.381 1480.85 370.179C1487.99 372.678 1495.32 374.616 1502.77 375.977C1521.04 369.098 1540.8 324.09 1540.8 324.09L1497.16 290.777C1497.16 290.777 1456.97 260.214 1439.97 254.121C1422.97 248.029 1378.65 219.137 1375.6 226.507C1371.28 236.826 1401.45 260.214 1429.95 281.244Z" fill="#FF8B7B"/>
<path opacity="0.2" d="M2537.47 616.266L2624.44 831.676C2622.77 802.194 2621.1 764.95 2619.52 724.462L2537.47 616.266Z" fill="black"/>
<path d="M2293.76 83.5393C2311.56 78.989 2330.11 78.1502 2348.25 81.0749C2366.39 83.9997 2383.74 90.6254 2399.21 100.54C2419.45 113.807 2436.35 132.773 2433.31 158.225C2424.98 211.226 2413.7 263.72 2399.5 315.459L2207.68 198.418C2207.68 198.418 2179.08 163.434 2223.6 116.853C2237.94 102.211 2267.13 90.1234 2293.76 83.5393Z" fill="#263238"/>
<path d="M2311.63 453.629C2314.41 441.351 2315.07 428.689 2313.6 416.188L2304.26 381.891V381.203L2359.98 320.275L2398.31 278.117C2396.14 322.437 2409.61 376.388 2425.62 422.575C2422.78 443.114 2326.17 498.146 2311.63 453.629Z" fill="#FF8B7B"/>
<g opacity="0.2">
<path d="M2304.27 381.896L2313.61 416.192C2334.74 406.365 2356.75 385.335 2361.66 362.733C2365.1 346.42 2357.64 331.286 2351.05 330.5L2304.27 381.896Z" fill="black"/>
</g>
<path d="M2217.99 310.633C2220.05 318.102 2222.41 325.374 2224.87 332.646C2246.68 396.522 2325.69 401.435 2374.53 354.167C2378.92 349.848 2382.99 345.217 2386.72 340.311C2417.67 298.939 2409.61 267.394 2404.31 195.754C2403.18 179.131 2397.85 163.068 2388.81 149.073C2379.77 135.078 2367.32 123.611 2352.63 115.751C2337.94 107.89 2321.49 103.893 2304.83 104.135C2288.17 104.378 2271.85 108.852 2257.39 117.137C2197.84 151.237 2197.35 236.045 2217.99 310.633Z" fill="#FF8B7B"/>
<path d="M2350.74 149.477C2350.74 149.477 2281.36 201.462 2200.78 177.779C2159.9 165.79 2166.78 81.9647 2198.91 65.75C2225.15 52.4834 2246.48 84.7163 2246.48 84.7163C2272.77 70.3307 2302.67 63.8791 2332.56 66.1431C2386.61 68.5016 2409.02 99.6534 2409.02 99.6534C2417.15 99.4469 2425.12 101.966 2431.65 106.809C2438.19 111.653 2442.91 118.543 2445.08 126.383C2452.35 151.049 2425.43 198.121 2425.43 198.121L2350.74 149.477Z" fill="#263238"/>
<path d="M2289.73 233.605C2290.52 239.207 2288.16 244.12 2284.52 244.612C2280.89 245.103 2277.25 240.976 2276.46 235.374C2275.68 229.773 2278.04 224.859 2281.77 224.368C2285.51 223.876 2288.95 228.004 2289.73 233.605Z" fill="#263238"/>
<path d="M2263.28 322.932H2261.32C2260.76 322.859 2260.25 322.571 2259.91 322.131C2259.56 321.691 2259.39 321.132 2259.45 320.574C2259.47 320.293 2259.55 320.02 2259.69 319.772C2259.82 319.523 2260 319.305 2260.22 319.13C2260.45 318.955 2260.7 318.827 2260.97 318.754C2261.24 318.682 2261.53 318.665 2261.81 318.707C2265.96 319.069 2270.15 318.585 2274.11 317.283C2278.08 315.981 2281.74 313.889 2284.87 311.134C2288 308.378 2290.54 305.016 2292.34 301.25C2294.13 297.485 2295.15 293.394 2295.32 289.225C2295.34 288.945 2295.42 288.671 2295.56 288.423C2295.69 288.175 2295.87 287.957 2296.09 287.782C2296.31 287.607 2296.57 287.479 2296.84 287.406C2297.11 287.333 2297.4 287.317 2297.68 287.358C2298.23 287.432 2298.74 287.719 2299.09 288.16C2299.44 288.6 2299.6 289.158 2299.54 289.717C2299.04 298.892 2294.96 307.505 2288.18 313.712C2281.4 319.919 2272.47 323.229 2263.28 322.932Z" fill="#263238"/>
<path d="M2405.4 202.255C2405.4 202.255 2383.78 203.434 2382.99 221.909C2382.2 240.384 2384.07 242.841 2384.07 242.841L2357.83 244.708C2357.83 244.708 2372.57 189.381 2354 190.364C2335.43 191.347 2362.55 150.564 2336.9 143.292C2309.48 135.529 2238.63 132.286 2211.02 175.722C2216.22 149.448 2230.87 125.991 2252.19 109.782C2286.19 86.59 2354.79 81.3817 2382.7 114.99C2410.6 148.599 2405.4 202.255 2405.4 202.255Z" fill="#263238"/>
<path d="M2441.47 238.814C2438.74 256.713 2429.06 272.814 2414.54 283.626C2394.88 297.679 2377.2 282.348 2375.23 259.648C2373.86 239.306 2382.21 207.466 2404.71 202.356C2409.71 201.341 2414.88 201.588 2419.76 203.074C2424.63 204.561 2429.06 207.24 2432.64 210.87C2436.22 214.499 2438.84 218.964 2440.26 223.861C2441.68 228.757 2441.86 233.931 2440.78 238.913" fill="#FF8B7B"/>
<path d="M2232.03 240.277C2232.81 245.879 2230.46 250.792 2226.82 251.283C2223.18 251.775 2219.55 247.647 2218.76 242.046C2217.98 236.445 2220.43 231.531 2224.07 231.04C2227.7 230.548 2231.34 234.676 2232.03 240.277Z" fill="#263238"/>
<path d="M2211.1 226.625C2211.58 226.516 2212.02 226.287 2212.38 225.96C2212.74 225.634 2213.01 225.22 2213.17 224.758C2213.57 222.694 2214.42 220.744 2215.66 219.046C2216.9 217.348 2218.5 215.943 2220.34 214.931C2224.04 213.332 2228.18 213.088 2232.03 214.243C2232.39 214.367 2232.77 214.419 2233.14 214.397C2233.52 214.375 2233.88 214.279 2234.22 214.115C2234.56 213.951 2234.86 213.721 2235.11 213.439C2235.36 213.158 2235.55 212.83 2235.67 212.474C2235.89 211.757 2235.84 210.981 2235.51 210.305C2235.18 209.629 2234.6 209.104 2233.9 208.838C2228.59 207.189 2222.86 207.538 2217.79 209.821C2215.37 211.153 2213.25 212.964 2211.56 215.144C2209.87 217.324 2208.65 219.827 2207.96 222.498C2207.84 222.852 2207.79 223.227 2207.82 223.601C2207.85 223.974 2207.95 224.338 2208.13 224.669C2208.3 225 2208.54 225.292 2208.84 225.527C2209.13 225.762 2209.46 225.935 2209.83 226.035C2210.19 226.348 2210.63 226.552 2211.1 226.625Z" fill="#263238"/>
<path d="M2304.56 217.665C2304.95 217.754 2305.35 217.754 2305.74 217.665C2306.09 217.526 2306.41 217.318 2306.67 217.051C2306.94 216.785 2307.15 216.467 2307.28 216.117C2307.42 215.767 2307.49 215.393 2307.48 215.017C2307.46 214.64 2307.37 214.271 2307.21 213.931C2304.82 208.925 2300.7 204.948 2295.62 202.728C2292.98 201.849 2290.19 201.517 2287.42 201.754C2284.65 201.99 2281.95 202.79 2279.5 204.104C2279.16 204.262 2278.85 204.487 2278.59 204.767C2278.33 205.046 2278.13 205.374 2278.01 205.731C2277.88 206.088 2277.82 206.467 2277.84 206.845C2277.86 207.224 2277.96 207.595 2278.12 207.936C2278.29 208.272 2278.52 208.572 2278.81 208.818C2279.09 209.065 2279.42 209.253 2279.77 209.371C2280.13 209.49 2280.51 209.537 2280.88 209.51C2281.26 209.483 2281.62 209.382 2281.96 209.214C2283.72 208.261 2285.65 207.674 2287.64 207.488C2289.64 207.302 2291.65 207.522 2293.55 208.133C2297.27 209.724 2300.28 212.626 2302 216.289C2302.28 216.719 2302.65 217.072 2303.1 217.313C2303.55 217.554 2304.05 217.676 2304.56 217.665Z" fill="#263238"/>
<path d="M2257.68 241.164C2250.89 256.68 2245.05 272.597 2240.19 288.825C2239.31 295.508 2260.34 295.311 2260.34 295.311L2257.68 241.164Z" fill="#FF5652"/>
<path d="M2626.31 460.504C2659.43 518.091 2690.58 576.857 2720.95 635.918C2736.28 665.399 2751.12 694.88 2766.15 724.361L2788.26 768.583L2799.27 790.203L2804.77 800.718L2807.33 805.631C2807.98 806.878 2808.57 808.157 2809.1 809.464L2810.57 813.002L2811.65 815.753L2813.42 820.962L2814.8 825.58C2818.14 837.176 2819.91 846.316 2821.67 855.553C2823.44 864.79 2824.82 873.438 2826.19 882.185C2828.85 899.578 2831.11 916.481 2832.98 933.482C2836.81 967.385 2840.15 1000.9 2842.8 1034.5C2847.91 1101.62 2851.55 1168.45 2852.63 1235.86C2852.75 1245.09 2849.47 1254.05 2843.43 1261.03C2837.39 1268.01 2829 1272.54 2819.85 1273.75C2810.69 1274.96 2801.41 1272.77 2793.76 1267.6C2786.11 1262.43 2780.62 1254.63 2778.34 1245.69C2762.32 1181.12 2747.77 1116.07 2733.13 1051.6C2725.57 1019.47 2718.49 987.236 2710.82 955.593C2706.89 939.771 2703.16 924.048 2699.13 908.914C2697.17 901.249 2695.1 893.78 2692.94 886.803C2691.17 880.603 2689.07 874.502 2686.65 868.525C2686.49 868.082 2686.29 867.655 2686.06 867.247C2686.06 867.247 2686.06 866.559 2686.06 866.658V867.346V868.328C2686.38 869.068 2686.74 869.79 2687.14 870.49L2686.16 868.918L2684.19 865.871L2680.36 859.877L2666.8 837.963L2640.56 795.018C2623.46 766.225 2606.36 737.53 2589.85 708.638C2556.54 650.855 2524.21 592.678 2493.94 533.224C2486.31 515.889 2485.46 496.325 2491.54 478.388C2497.62 460.452 2510.19 445.442 2526.79 436.318C2543.39 427.194 2562.8 424.616 2581.2 429.092C2599.6 433.569 2615.66 444.776 2626.21 460.504H2626.31Z" fill="#407BFF"/>
<path d="M2936.34 1423.56V1361.95C2936.34 1360.93 2935.94 1359.96 2935.22 1359.24C2934.5 1358.52 2933.53 1358.12 2932.51 1358.12H2899V1348.29H2932.41C2936.06 1348.29 2939.56 1349.74 2942.14 1352.32C2944.72 1354.9 2946.17 1358.4 2946.17 1362.05V1423.56H2936.34Z" fill="#263238"/>
<path d="M2705.31 1361.45V1423.56H2695.49V1361.95C2695.49 1358.3 2696.94 1354.8 2699.52 1352.22C2702.1 1349.64 2705.6 1348.19 2709.24 1348.19H2742.66V1358.01H2709.24C2708.28 1358.01 2707.35 1358.35 2706.62 1358.99C2705.9 1359.62 2705.43 1360.5 2705.31 1361.45Z" fill="#263238"/>
<path d="M2564.39 1449.1V1759.64C2564.39 1766.57 2567.14 1773.22 2572.05 1778.12C2576.95 1783.03 2583.6 1785.78 2590.53 1785.78H3038.74C3045.67 1785.75 3052.3 1782.99 3057.2 1778.1C3062.09 1773.2 3064.86 1766.57 3064.88 1759.64V1449.1C3064.86 1442.19 3062.09 1435.57 3057.19 1430.68C3052.29 1425.8 3045.66 1423.06 3038.74 1423.06H2590.53C2587.1 1423.05 2583.7 1423.71 2580.53 1425.02C2577.36 1426.32 2574.48 1428.24 2572.05 1430.66C2569.62 1433.07 2567.7 1435.95 2566.38 1439.12C2565.07 1442.28 2564.39 1445.68 2564.39 1449.1Z" fill="#263238"/>
<g opacity="0.5">
<path d="M2564.4 1449.1V1759.64C2564.4 1766.57 2567.15 1773.22 2572.05 1778.12C2576.96 1783.03 2583.6 1785.78 2590.54 1785.78H3038.75C3045.68 1785.75 3052.31 1782.99 3057.21 1778.1C3062.1 1773.2 3064.86 1766.57 3064.89 1759.64V1449.1C3064.86 1442.19 3062.1 1435.57 3057.2 1430.68C3052.3 1425.8 3045.67 1423.06 3038.75 1423.06H2590.54C2587.11 1423.05 2583.71 1423.71 2580.54 1425.02C2577.37 1426.32 2574.49 1428.24 2572.06 1430.66C2569.63 1433.07 2567.7 1435.95 2566.39 1439.12C2565.07 1442.28 2564.4 1445.68 2564.4 1449.1Z" fill="white"/>
</g>
<path d="M2630.14 1423.06H2649.99V1785.78H2630.14V1423.06Z" fill="#263238"/>
<path d="M2979.19 1423.06H2999.04V1785.78H2979.19V1423.06Z" fill="#263238"/>
<path d="M2784.62 1258.66C2784.62 1258.66 2752.58 1330.99 2756.12 1347.11C2759.66 1363.22 2781.37 1333.25 2781.37 1333.25L2784.62 1258.66Z" fill="#FF8B7B"/>
<path d="M2732.33 1336.1H2912.85V1369.22H2732.33V1336.1Z" fill="#263238"/>
<path opacity="0.3" d="M2732.33 1336.1H2912.85V1369.22H2732.33V1336.1Z" fill="white"/>
<path d="M2850.45 1247.65L2875.41 1321.36C2880.42 1342.39 2812.42 1373.15 2786.18 1354.97C2765.44 1340.72 2783.33 1255.22 2783.33 1255.22C2793.07 1248.62 2804.26 1244.48 2815.96 1243.16C2827.65 1241.84 2839.48 1243.38 2850.45 1247.65Z" fill="#FF8B7B"/>
<path d="M2875.43 1321.35C2880.63 1344.84 2877.59 1390.83 2840.05 1395.64C2831.86 1396.97 2823.52 1397.13 2815.28 1396.14C2807.89 1399.24 2799.7 1399.93 2791.9 1398.1C2773.03 1392.11 2780 1344.64 2780 1344.64L2875.43 1321.35Z" fill="#FF8B7B"/>
<path d="M2414.04 386.694C2414.04 386.694 2467.5 375.295 2479.09 419.713V566.432L2448.33 604.856L2472.61 629.03L2473.3 817.612L2416.5 837.266C2415.32 784.79 2406.67 690.646 2419.84 551.396C2424.73 496.467 2422.78 441.144 2414.04 386.694Z" fill="#407BFF"/>
<path opacity="0.3" d="M2414.04 386.694C2414.04 386.694 2467.5 375.295 2479.09 419.713V566.432L2448.33 604.856L2472.61 629.03L2473.3 817.612L2416.5 837.266C2415.32 784.79 2406.67 690.646 2419.84 551.396C2424.73 496.467 2422.78 441.144 2414.04 386.694Z" fill="black"/>
<path d="M2313.61 416.177C2313.61 416.177 2288.55 441.629 2276.07 499.806C2263.59 557.982 2238.33 812.406 2239.12 844.737L2182.91 802.579L2205.71 600.534L2239.02 579.897L2211.01 543.143C2211.01 543.143 2236.76 450.376 2253.37 426.692C2269.98 403.009 2308.4 397.211 2308.4 397.211L2313.61 416.177Z" fill="#407BFF"/>
<path opacity="0.3" d="M2313.61 416.177C2313.61 416.177 2288.55 441.629 2276.07 499.806C2263.59 557.982 2238.33 812.406 2239.12 844.737L2182.91 802.579L2205.71 600.534L2239.02 579.897L2211.01 543.143C2211.01 543.143 2236.76 450.376 2253.37 426.692C2269.98 403.009 2308.4 397.211 2308.4 397.211L2313.61 416.177Z" fill="black"/>
</svg>
