<svg width="488" height="163" viewBox="0 0 488 163" fill="none" xmlns="http://www.w3.org/2000/svg">
<mask id="mask0_993_9699" style="mask-type:luminance" maskUnits="userSpaceOnUse" x="0" y="0" width="451" height="163">
<path d="M0 0H450.595V162.224H0V0Z" fill="white"/>
</mask>
<g mask="url(#mask0_993_9699)">
<path d="M448.522 9.44272L448.482 9.59897C448.345 10.6771 433.87 117.5 432.207 127.563C430.704 136.635 410.514 137.427 410.321 137.438H410.225C406.865 137.661 73.8941 159.661 53.3029 161.823C34.6246 163.781 32.1571 155.484 32.0607 155.135L32.0366 155.073L1.72848 86.6979C-0.738931 75.2604 11.1802 72.8802 11.6704 72.7865C15.7453 72.0677 419.492 0.666675 436.683 0.192717C441.264 0.0677168 444.6 0.776049 446.569 2.3073C450.017 4.97918 448.538 9.40105 448.522 9.44272Z" fill="#4D5991"/>
</g>
<path d="M477.11 15.2188C471.074 11.6979 463.294 10.0677 455.184 10.6302L65.4223 37.4948C47.5316 38.7292 32.9844 50.2865 32.9844 63.2604V124.682C32.9844 131.406 36.9547 137.578 43.8747 141.609C49.131 144.677 55.7295 146.307 62.6977 146.307C63.7185 146.307 64.7633 146.271 65.8001 146.198L455.562 119.333C473.453 118.099 488 106.536 488 93.5625V32.1407C488 25.4219 484.03 19.25 477.11 15.2188ZM484.415 93.5625C484.415 105.391 471.299 115.906 455.184 117.016L65.4223 143.891C58.3496 144.375 51.5422 142.953 46.2778 139.88C40.1053 136.292 36.5689 130.75 36.5689 124.682V63.2604C36.5689 51.4427 49.6856 40.9167 65.8001 39.8073L455.562 12.9427C456.478 12.875 457.378 12.849 458.287 12.849C464.371 12.849 470.117 14.2709 474.706 16.9427C480.879 20.5365 484.415 26.0782 484.415 32.1407V93.5625Z" fill="#28334F"/>
<path d="M484.416 32.1405V93.5624C484.416 105.391 471.299 115.906 455.185 117.016L65.4227 143.891C58.35 144.375 51.5426 142.953 46.2782 139.88C40.1057 136.292 36.5693 130.75 36.5693 124.682V63.2603C36.5693 51.4426 49.686 40.9166 65.8005 39.8072L455.562 12.9426C456.479 12.8749 457.379 12.8489 458.287 12.8489C464.371 12.8489 470.118 14.2708 474.707 16.9426C480.879 20.5364 484.416 26.078 484.416 32.1405Z" fill="#F4F6FF"/>
<path d="M108.602 95L102.134 67.28H107.888L112.508 90.38H112.928L118.094 67.28H124.94L130.064 90.38H130.526L135.188 67.28H140.69L134.096 95H126.62L121.622 71.9H121.244L116.246 95H108.602ZM144.793 95V73.034H150.085V95H144.793ZM147.439 69.59C146.375 69.59 145.549 69.366 144.961 68.918C144.401 68.442 144.121 67.77 144.121 66.902C144.121 66.034 144.401 65.376 144.961 64.928C145.549 64.452 146.375 64.214 147.439 64.214C148.559 64.214 149.399 64.438 149.959 64.886C150.519 65.334 150.799 66.006 150.799 66.902C150.799 67.77 150.505 68.442 149.917 68.918C149.357 69.366 148.531 69.59 147.439 69.59ZM164.557 95.546C163.073 95.546 161.729 95.392 160.525 95.084C159.349 94.804 158.341 94.398 157.501 93.866C156.661 93.306 155.989 92.648 155.485 91.892C154.981 91.108 154.673 90.24 154.561 89.288L158.719 87.734C158.775 88.462 159.055 89.12 159.559 89.708C160.063 90.268 160.763 90.716 161.659 91.052C162.555 91.388 163.633 91.556 164.893 91.556C166.293 91.556 167.371 91.346 168.127 90.926C168.911 90.478 169.303 89.848 169.303 89.036C169.303 88.448 169.093 87.986 168.673 87.65C168.253 87.286 167.637 86.992 166.825 86.768C166.041 86.516 165.089 86.278 163.969 86.054C162.933 85.83 161.883 85.578 160.819 85.298C159.783 84.99 158.817 84.598 157.921 84.122C157.053 83.618 156.339 82.974 155.779 82.19C155.247 81.378 154.981 80.356 154.981 79.124C154.981 77.78 155.331 76.618 156.031 75.638C156.759 74.658 157.795 73.888 159.139 73.328C160.511 72.768 162.163 72.488 164.095 72.488C165.915 72.488 167.483 72.74 168.799 73.244C170.143 73.748 171.235 74.476 172.075 75.428C172.915 76.352 173.447 77.458 173.671 78.746L169.303 80.132C169.219 79.348 168.953 78.69 168.505 78.158C168.057 77.598 167.455 77.178 166.699 76.898C165.943 76.618 165.061 76.478 164.053 76.478C162.765 76.478 161.757 76.702 161.029 77.15C160.301 77.598 159.937 78.2 159.937 78.956C159.937 79.572 160.161 80.062 160.609 80.426C161.085 80.79 161.729 81.084 162.541 81.308C163.381 81.532 164.333 81.756 165.397 81.98C166.517 82.204 167.595 82.47 168.631 82.778C169.695 83.058 170.647 83.436 171.487 83.912C172.327 84.388 172.999 85.018 173.503 85.802C174.007 86.558 174.259 87.538 174.259 88.742C174.259 90.198 173.867 91.444 173.083 92.48C172.299 93.488 171.179 94.258 169.723 94.79C168.295 95.294 166.573 95.546 164.557 95.546ZM178.712 95V81.35V65.18H184.046V72.026C184.046 72.614 184.018 73.216 183.962 73.832C183.934 74.448 183.878 75.078 183.794 75.722C183.71 76.366 183.612 77.01 183.5 77.654C183.416 78.298 183.318 78.942 183.206 79.586H184.088C184.48 78.074 184.984 76.8 185.6 75.764C186.216 74.7 187 73.888 187.952 73.328C188.932 72.768 190.122 72.488 191.522 72.488C194.07 72.488 195.974 73.384 197.234 75.176C198.494 76.94 199.124 79.628 199.124 83.24V95H193.79V83.996C193.79 81.588 193.426 79.81 192.698 78.662C191.998 77.514 190.934 76.94 189.506 76.94C188.33 76.94 187.35 77.304 186.566 78.032C185.782 78.732 185.18 79.67 184.76 80.846C184.34 82.022 184.088 83.352 184.004 84.836V95H178.712Z" fill="black"/>
</svg>
