<svg width="74" height="33" viewBox="0 0 74 33" fill="none" xmlns="http://www.w3.org/2000/svg">
<g clip-path="url(#clip0_48_2102)">
<g clip-path="url(#clip1_48_2102)">
<g clip-path="url(#clip2_48_2102)">
<path d="M0.689941 20.0478V0.550644H17.7349C19.2205 0.550644 20.3808 0.764553 21.2157 1.1919C22.0516 1.61972 22.6459 2.20926 22.9985 2.96146C23.352 3.71273 23.5287 4.58011 23.5287 5.56409C23.5287 6.88327 23.0177 8.10844 21.9962 9.24047C22.8509 9.81591 23.5429 10.5315 24.0723 11.3861C24.6011 12.2399 24.8658 13.215 24.8658 14.3104C24.8658 15.3874 24.6425 16.3577 24.1963 17.2213C23.7511 18.0841 23.0643 18.7709 22.1353 19.2824C21.2072 19.7929 20.0009 20.0478 18.5153 20.0478H0.689941ZM7.23412 7.65336H15.089C15.405 7.65336 15.7063 7.63547 15.9936 7.59882C16.2818 7.56122 16.5229 7.44554 16.7176 7.2509C16.9131 7.05533 17.0109 6.73471 17.0109 6.28808C17.0109 5.82454 16.9131 5.49968 16.7176 5.31398C16.5229 5.12875 16.2818 5.0178 15.9936 4.98113C15.7063 4.94352 15.405 4.92472 15.089 4.92472H7.23412V7.65336ZM7.23412 15.2017H16.426C16.742 15.2017 17.0434 15.1839 17.3306 15.1472C17.6188 15.1096 17.8599 14.9982 18.0546 14.8124C18.2501 14.6258 18.348 14.3099 18.348 13.8647C18.348 13.4011 18.2501 13.0762 18.0546 12.8906C17.8599 12.7039 17.6188 12.5925 17.3306 12.5559C17.0434 12.5183 16.742 12.4994 16.426 12.4994H7.23412V15.2017Z" fill="#004AAD"/>
<path d="M25.8396 20.0478V16.9563C25.8396 15.8797 26.1222 14.9606 26.6877 14.1994C27.2542 13.4374 28.0013 12.7966 28.9293 12.2776C29.8583 11.7576 30.8747 11.3213 31.9795 10.9687C33.0852 10.6152 34.19 10.3044 35.2948 10.036C36.3992 9.7666 37.4151 9.5019 38.3431 9.24236C39.2721 8.98195 40.0196 8.68904 40.5866 8.3642C41.1531 8.03979 41.4366 7.64492 41.4366 7.17947C41.4366 6.64164 41.1761 6.27588 40.6562 6.08125C40.1372 5.88568 39.116 5.78789 37.5928 5.78789C36.5534 5.78789 35.6714 5.83444 34.9469 5.92705C34.222 6.02013 33.6691 6.23828 33.2883 6.58147C32.9085 6.92513 32.7185 7.46813 32.7185 8.20996H26.1743C26.1743 6.55796 26.4432 5.21199 26.9811 4.17254C27.5199 3.13214 28.2862 2.32916 29.2791 1.7636C30.272 1.1971 31.451 0.807358 32.8163 0.59392C34.1816 0.379541 35.6808 0.272352 37.3145 0.272352C39.5608 0.272352 41.4732 0.444419 43.0519 0.787613C44.6302 1.13128 45.8417 1.74855 46.687 2.63992C47.5318 3.53128 47.9544 4.78511 47.9544 6.40094C47.9544 7.36658 47.7541 8.17898 47.3545 8.83811C46.9559 9.49623 46.4265 10.0435 45.7674 10.4798C45.1078 10.916 44.3692 11.2785 43.5522 11.5667C42.736 11.8553 41.9096 12.1017 41.0736 12.3058C40.2387 12.5089 39.4494 12.7082 38.7061 12.9037C37.9638 13.0984 37.323 13.3207 36.7842 13.5713C36.2463 13.8224 35.8843 14.1425 35.6991 14.5323H47.6761V20.0478H25.8396Z" fill="#004AAD"/>
<path d="M49.2064 20.0478V0.550644H66.2513C67.7369 0.550644 68.8972 0.764553 69.7321 1.1919C70.5681 1.61972 71.1623 2.20926 71.5149 2.96146C71.8684 3.71273 72.0452 4.58011 72.0452 5.56409C72.0452 6.88327 71.5342 8.10844 70.5126 9.24047C71.3673 9.81591 72.0593 10.5315 72.5887 11.3861C73.1176 12.2399 73.3823 13.215 73.3823 14.3104C73.3823 15.3874 73.1589 16.3577 72.7128 17.2213C72.2676 18.0841 71.5807 18.7709 70.6518 19.2824C69.7237 19.7929 68.5174 20.0478 67.0318 20.0478H49.2064ZM55.7506 7.65336H63.6055C63.9214 7.65336 64.2227 7.63547 64.51 7.59882C64.7982 7.56122 65.0394 7.44554 65.234 7.2509C65.4296 7.05533 65.5273 6.73471 65.5273 6.28808C65.5273 5.82454 65.4296 5.49968 65.234 5.31398C65.0394 5.12875 64.7982 5.0178 64.51 4.98113C64.2227 4.94352 63.9214 4.92472 63.6055 4.92472H55.7506V7.65336ZM55.7506 15.2017H64.9425C65.2584 15.2017 65.5598 15.1839 65.847 15.1472C66.1352 15.1096 66.3764 14.9982 66.571 14.8124C66.7666 14.6258 66.8644 14.3099 66.8644 13.8647C66.8644 13.4011 66.7666 13.0762 66.571 12.8906C66.3764 12.7039 66.1352 12.5925 65.847 12.5559C65.5598 12.5183 65.2584 12.4994 64.9425 12.4994H55.7506V15.2017Z" fill="#004AAD"/>
<path d="M4.58649 25.4917C5.208 25.4917 5.76416 25.6271 6.2545 25.8979C6.74437 26.1687 7.1294 26.5519 7.40914 27.0469C7.68839 27.541 7.82849 28.1108 7.82849 28.7563C7.82849 29.4022 7.68839 29.9744 7.40914 30.4733C7.1294 30.9711 6.74437 31.3562 6.2545 31.6278C5.76416 31.8986 5.208 32.034 4.58649 32.034C4.14739 32.034 3.74684 31.9579 3.38484 31.8065C3.02237 31.6551 2.71726 31.4276 2.46903 31.1239V31.9494H1.04736V23.0753H2.54237V26.3399C2.79671 26.0616 3.09712 25.851 3.44313 25.708C3.79009 25.5641 4.17137 25.4917 4.58649 25.4917ZM4.41912 30.7534C4.96917 30.7534 5.4219 30.5706 5.77685 30.2043C6.13133 29.8372 6.30904 29.3543 6.30904 28.7563C6.30904 28.1583 6.13133 27.6764 5.77685 27.3102C5.4219 26.9431 4.96917 26.7592 4.41912 26.7592C4.06041 26.7592 3.73744 26.8415 3.45066 27.0055C3.16341 27.1687 2.93587 27.4019 2.76803 27.7051C2.60114 28.0074 2.51792 28.3576 2.51792 28.7563C2.51792 29.155 2.60114 29.5062 2.76803 29.8094C2.93587 30.1117 3.16341 30.3449 3.45066 30.509C3.73744 30.6721 4.06041 30.7534 4.41912 30.7534Z" fill="black"/>
<path d="M9.25261 25.5632H10.7476V31.9495H9.25261V25.5632ZM10.0048 24.5101C9.73401 24.5101 9.50647 24.4251 9.3222 24.2544C9.1388 24.0828 9.04761 23.8689 9.04761 23.6131C9.04761 23.3588 9.1388 23.1458 9.3222 22.9738C9.50647 22.8022 9.73401 22.7161 10.0048 22.7161C10.2756 22.7161 10.5022 22.7984 10.6856 22.9624C10.8698 23.1256 10.962 23.3306 10.962 23.5774C10.962 23.8407 10.8722 24.0621 10.693 24.2412C10.5135 24.4208 10.2841 24.5101 10.0048 24.5101Z" fill="black"/>
<path d="M14.1309 26.4959C14.562 25.8265 15.3199 25.4917 16.4044 25.4917V26.9133C16.2766 26.8898 16.1604 26.8776 16.0565 26.8776C15.4746 26.8776 15.0203 27.0478 14.6932 27.3872C14.3669 27.7258 14.2042 28.2142 14.2042 28.8522V31.9493H12.7092V25.5631H14.1309V26.4959Z" fill="black"/>
<path d="M20.1718 25.4917C21.1121 25.4917 21.8309 25.7169 22.3288 26.1668C22.8276 26.6172 23.0772 27.2965 23.0772 28.2053V31.9493H21.6668V31.1727C21.4835 31.4511 21.222 31.6645 20.8827 31.8121C20.5441 31.9597 20.1352 32.034 19.6565 32.034C19.1789 32.034 18.76 31.9522 18.4004 31.7895C18.0416 31.6254 17.7648 31.3979 17.5692 31.1069C17.3746 30.815 17.2777 30.4858 17.2777 30.1196C17.2777 29.5456 17.4906 29.0853 17.9171 28.7393C18.343 28.3924 19.0153 28.2184 19.933 28.2184H21.5822V28.1225C21.5822 27.6764 21.4486 27.3336 21.1816 27.0939C20.9146 26.8546 20.5183 26.7347 19.9931 26.7347C19.633 26.7347 19.2795 26.7906 18.9325 26.9021C18.5865 27.014 18.2937 27.1691 18.0544 27.3684L17.4695 26.2796C17.8043 26.0253 18.2067 25.8302 18.6768 25.6948C19.1469 25.5594 19.6453 25.4917 20.1718 25.4917ZM19.9687 30.9451C20.3434 30.9451 20.6763 30.8596 20.9672 30.6876C21.2578 30.5159 21.4627 30.271 21.5822 29.9523V29.2113H20.0402C19.1789 29.2113 18.7483 29.4944 18.7483 30.0595C18.7483 30.3302 18.856 30.5461 19.0717 30.7063C19.287 30.8657 19.5861 30.9451 19.9687 30.9451Z" fill="black"/>
<path d="M28.6881 31.4526C28.5123 31.5954 28.2988 31.7036 28.0469 31.776C27.7958 31.8474 27.5316 31.8832 27.2533 31.8832C26.5509 31.8832 26.0089 31.6998 25.6267 31.3322C25.2439 30.965 25.0531 30.4309 25.0531 29.73V26.6554H24V25.4593H25.0531V24.0001H26.5481V25.4593H28.2575V26.6554H26.5481V29.6943C26.5481 30.0055 26.6233 30.2424 26.7738 30.4051C26.9252 30.5682 27.1447 30.6496 27.4319 30.6496C27.7667 30.6496 28.0455 30.5626 28.2688 30.3881L28.6881 31.4526Z" fill="black"/>
<path d="M36.9047 25.4917C37.5262 25.4917 38.0824 25.6271 38.5727 25.8979C39.0626 26.1687 39.4476 26.5519 39.7274 27.0469C40.0066 27.541 40.1467 28.1108 40.1467 28.7563C40.1467 29.4022 40.0066 29.9744 39.7274 30.4733C39.4476 30.9711 39.0626 31.3562 38.5727 31.6278C38.0824 31.8986 37.5262 32.034 36.9047 32.034C36.4657 32.034 36.065 31.9579 35.703 31.8065C35.3406 31.6551 35.0355 31.4276 34.7873 31.1239V31.9494H33.3656V23.0753H34.8606V26.3399C35.115 26.0616 35.4154 25.851 35.7614 25.708C36.1083 25.5641 36.4896 25.4917 36.9047 25.4917ZM36.7373 30.7534C37.2874 30.7534 37.7401 30.5706 38.0951 30.2043C38.4495 29.8372 38.6273 29.3543 38.6273 28.7563C38.6273 28.1583 38.4495 27.6764 38.0951 27.3102C37.7401 26.9431 37.2874 26.7592 36.7373 26.7592C36.3787 26.7592 36.0557 26.8415 35.7689 27.0055C35.4816 27.1687 35.2541 27.4019 35.0862 27.7051C34.9193 28.0074 34.8361 28.3576 34.8361 28.7563C34.8361 29.155 34.9193 29.5062 35.0862 29.8094C35.2541 30.1117 35.4816 30.3449 35.7689 30.509C36.0557 30.6721 36.3787 30.7534 36.7373 30.7534Z" fill="black"/>
<path d="M44.0098 25.4917C44.9501 25.4917 45.6689 25.7169 46.1668 26.1668C46.6656 26.6172 46.9152 27.2965 46.9152 28.2053V31.9493H45.5048V31.1727C45.3215 31.4511 45.0601 31.6645 44.7207 31.8121C44.3822 31.9597 43.9732 32.034 43.4945 32.034C43.0169 32.034 42.598 31.9522 42.2384 31.7895C41.8797 31.6254 41.6028 31.3979 41.4072 31.1069C41.2126 30.815 41.1157 30.4858 41.1157 30.1196C41.1157 29.5456 41.3287 29.0853 41.7551 28.7393C42.1811 28.3924 42.8533 28.2184 43.771 28.2184H45.4202V28.1225C45.4202 27.6764 45.2867 27.3336 45.0197 27.0939C44.7527 26.8546 44.3563 26.7347 43.8312 26.7347C43.4711 26.7347 43.1176 26.7906 42.7705 26.9021C42.4245 27.014 42.1317 27.1691 41.8924 27.3684L41.3076 26.2796C41.6423 26.0253 42.0447 25.8302 42.5149 25.6948C42.9849 25.5594 43.4833 25.4917 44.0098 25.4917ZM43.8067 30.9451C44.1815 30.9451 44.5143 30.8596 44.8053 30.6876C45.0958 30.5159 45.3008 30.271 45.4202 29.9523V29.2113H43.8782C43.0169 29.2113 42.5863 29.4944 42.5863 30.0595C42.5863 30.3302 42.694 30.5461 42.9097 30.7063C43.125 30.8657 43.4241 30.9451 43.8067 30.9451Z" fill="black"/>
<path d="M53.8182 30.7534V31.9493H48.3046V31.0054L51.8079 26.7592H48.376V25.5631H53.7223V26.5072L50.2058 30.7534H53.8182Z" fill="black"/>
<path d="M57.6332 25.4917C58.5734 25.4917 59.2923 25.7169 59.7902 26.1668C60.289 26.6172 60.5386 27.2965 60.5386 28.2053V31.9493H59.1282V31.1727C58.9449 31.4511 58.6835 31.6645 58.3441 31.8121C58.0056 31.9597 57.5965 32.034 57.1179 32.034C56.6403 32.034 56.2215 31.9522 55.8618 31.7895C55.5031 31.6254 55.2261 31.3979 55.0306 31.1069C54.836 30.815 54.7391 30.4858 54.7391 30.1196C54.7391 29.5456 54.9521 29.0853 55.3785 28.7393C55.8044 28.3924 56.4767 28.2184 57.3944 28.2184H59.0436V28.1225C59.0436 27.6764 58.9101 27.3336 58.643 27.0939C58.376 26.8546 57.9797 26.7347 57.4546 26.7347C57.0945 26.7347 56.7409 26.7906 56.3939 26.9021C56.0479 27.014 55.755 27.1691 55.5158 27.3684L54.9309 26.2796C55.2656 26.0253 55.6681 25.8302 56.1382 25.6948C56.6083 25.5594 57.1067 25.4917 57.6332 25.4917ZM57.4301 30.9451C57.8048 30.9451 58.1377 30.8596 58.4287 30.6876C58.7192 30.5159 58.9242 30.271 59.0436 29.9523V29.2113H57.5016C56.6403 29.2113 56.2097 29.4944 56.2097 30.0595C56.2097 30.3302 56.3173 30.5461 56.5331 30.7063C56.7485 30.8657 57.0474 30.9451 57.4301 30.9451Z" fill="black"/>
<path d="M64.8935 25.4917C65.8337 25.4917 66.5525 25.7169 67.0504 26.1668C67.5492 26.6172 67.7989 27.2965 67.7989 28.2053V31.9493H66.3885V31.1727C66.2052 31.4511 65.9437 31.6645 65.6043 31.8121C65.2658 31.9597 64.8568 32.034 64.3782 32.034C63.9006 32.034 63.4816 31.9522 63.122 31.7895C62.7633 31.6254 62.4864 31.3979 62.2909 31.1069C62.0962 30.815 61.9994 30.4858 61.9994 30.1196C61.9994 29.5456 62.2123 29.0853 62.6387 28.7393C63.0647 28.3924 63.737 28.2184 64.6546 28.2184H66.3038V28.1225C66.3038 27.6764 66.1703 27.3336 65.9033 27.0939C65.6363 26.8546 65.2399 26.7347 64.7148 26.7347C64.3547 26.7347 64.0012 26.7906 63.6542 26.9021C63.3082 27.014 63.0153 27.1691 62.776 27.3684L62.1912 26.2796C62.5259 26.0253 62.9283 25.8302 63.3985 25.6948C63.8686 25.5594 64.3669 25.4917 64.8935 25.4917ZM64.6904 30.9451C65.065 30.9451 65.3979 30.8596 65.6889 30.6876C65.9794 30.5159 66.1844 30.271 66.3038 29.9523V29.2113H64.7618C63.9006 29.2113 63.4699 29.4944 63.4699 30.0595C63.4699 30.3302 63.5776 30.5461 63.7934 30.7063C64.0087 30.8657 64.3077 30.9451 64.6904 30.9451Z" fill="black"/>
<path d="M71.1364 26.4959C71.5675 25.8265 72.3253 25.4917 73.4099 25.4917V26.9133C73.282 26.8898 73.1659 26.8776 73.062 26.8776C72.48 26.8776 72.0258 27.0478 71.6987 27.3872C71.3724 27.7258 71.2097 28.2142 71.2097 28.8522V31.9493H69.7147V25.5631H71.1364V26.4959Z" fill="black"/>
</g>
</g>
</g>
<defs>
<clipPath id="clip0_48_2102">
<rect width="72.72" height="32" fill="white" transform="translate(0.689941 0.270752)"/>
</clipPath>
<clipPath id="clip1_48_2102">
<rect width="72.72" height="32" fill="white" transform="translate(0.689941 0.270752)"/>
</clipPath>
<clipPath id="clip2_48_2102">
<rect width="72.72" height="31.9968" fill="white" transform="translate(0.689941 0.272352)"/>
</clipPath>
</defs>
</svg>
